<?xml version="1.0" encoding="UTF-8"?>
<!DOCTYPE svg PUBLIC "-//W3C//DTD SVG 1.1//EN" "http://www.w3.org/Graphics/SVG/1.1/DTD/svg11.dtd">
<svg xmlns="http://www.w3.org/2000/svg" version="1.1" width="597px" height="418px" style="shape-rendering:geometricPrecision; text-rendering:geometricPrecision; image-rendering:optimizeQuality; fill-rule:evenodd; clip-rule:evenodd" xmlns:xlink="http://www.w3.org/1999/xlink">
<g><path style="opacity:0.004" fill="#fefffe" d="M 254.5,85.5 C 254.897,84.475 255.563,84.3083 256.5,85C 255.906,85.4643 255.239,85.631 254.5,85.5 Z"/></g>
<g><path style="opacity:0.725" fill="#7f7d7e" d="M 354.5,88.5 C 316.5,88.5 278.5,88.5 240.5,88.5C 241.609,87.71 242.942,87.21 244.5,87C 280.167,86.3333 315.833,86.3333 351.5,87C 352.737,87.2321 353.737,87.7321 354.5,88.5 Z"/></g>
<g><path style="opacity:0.008" fill="#fefffe" d="M 356.5,87.5 C 357.833,88.1667 357.833,88.1667 356.5,87.5 Z"/></g>
<g><path style="opacity:0.004" fill="#fefffe" d="M 358.5,88.5 C 359.833,89.1667 359.833,89.1667 358.5,88.5 Z"/></g>
<g><path style="opacity:0.404" fill="#afafaf" d="M 240.5,88.5 C 239.738,90.2624 238.404,91.2624 236.5,91.5C 237.262,89.7376 238.596,88.7376 240.5,88.5 Z"/></g>
<g><path style="opacity:1" fill="#242122" d="M 240.5,88.5 C 278.5,88.5 316.5,88.5 354.5,88.5C 355.167,88.5 355.833,88.5 356.5,88.5C 356.5,88.8333 356.5,89.1667 356.5,89.5C 353.774,89.2639 351.441,90.0972 349.5,92C 351.5,92.6667 353.5,93.3333 355.5,94C 354.167,95 354.167,96 355.5,97C 353.431,97.3242 353.098,98.1575 354.5,99.5C 354,99.8333 353.5,100.167 353,100.5C 346.955,99.8741 340.955,99.2075 335,98.5C 334.383,99.4491 334.549,100.282 335.5,101C 334.451,101.492 333.451,101.326 332.5,100.5C 331.478,100.855 330.811,101.522 330.5,102.5C 330.167,102.5 329.833,102.5 329.5,102.5C 329.167,102.5 328.833,102.5 328.5,102.5C 328.167,101.5 327.5,100.833 326.5,100.5C 326.167,100.5 325.833,100.5 325.5,100.5C 323.034,99.3659 320.367,99.1993 317.5,100C 316.619,100.708 315.953,101.542 315.5,102.5C 314.094,102.973 313.427,103.973 313.5,105.5C 300.833,105.5 288.167,105.5 275.5,105.5C 276.568,104.566 277.901,104.232 279.5,104.5C 281.604,104.799 283.604,104.466 285.5,103.5C 285.376,102.893 285.043,102.56 284.5,102.5C 284.047,101.542 283.381,100.708 282.5,100C 279.304,99.1955 276.304,99.3622 273.5,100.5C 273.5,100.833 273.5,101.167 273.5,101.5C 272.833,101.5 272.5,101.833 272.5,102.5C 271.833,102.5 271.5,102.833 271.5,103.5C 270.662,103.842 270.328,104.508 270.5,105.5C 270.167,105.5 269.833,105.5 269.5,105.5C 261.493,105.334 253.493,105.5 245.5,106C 244.226,106.977 244.226,107.811 245.5,108.5C 245.5,109.167 245.833,109.5 246.5,109.5C 253.648,110.492 260.981,110.825 268.5,110.5C 268.263,111.791 268.596,112.791 269.5,113.5C 269.232,115.099 269.566,116.432 270.5,117.5C 270.5,117.833 270.5,118.167 270.5,118.5C 271.663,128.98 272.663,139.48 273.5,150C 273.703,155.011 273.036,159.844 271.5,164.5C 269.5,165.833 267.833,167.5 266.5,169.5C 262.762,172.626 260.262,176.626 259,181.5C 258.183,187.016 258.349,192.35 259.5,197.5C 259.5,197.833 259.5,198.167 259.5,198.5C 259.12,200.698 259.787,202.365 261.5,203.5C 261.833,203.5 262.167,203.5 262.5,203.5C 262.833,204.833 263.167,206.167 263.5,207.5C 264.422,209.816 266.089,211.483 268.5,212.5C 269.984,214.074 271.651,215.407 273.5,216.5C 275.378,217.38 278.045,217.88 281.5,218C 280.5,218.333 279.5,218.667 278.5,219C 278.713,220.634 279.046,222.134 279.5,223.5C 276.042,224.039 272.709,225.206 269.5,227C 275.528,227.17 281.528,227.67 287.5,228.5C 282.198,229.329 276.864,229.829 271.5,230C 298.498,230.5 325.498,230.667 352.5,230.5C 352.5,230.833 352.5,231.167 352.5,231.5C 351.833,231.5 351.167,231.5 350.5,231.5C 322.5,231.5 294.5,231.5 266.5,231.5C 265.51,237.645 265.177,243.978 265.5,250.5C 298.168,250.333 330.835,250.5 363.5,251C 364.044,251.717 364.711,252.217 365.5,252.5C 366.833,253.833 366.833,255.167 365.5,256.5C 364.5,256.833 363.833,257.5 363.5,258.5C 363.167,258.5 362.833,258.5 362.5,258.5C 330.5,258.5 298.5,258.5 266.5,258.5C 265.691,260.292 265.191,262.292 265,264.5C 263.549,262.536 261.716,261.203 259.5,260.5C 258.209,260.263 257.209,260.596 256.5,261.5C 255.833,261.5 255.5,261.833 255.5,262.5C 254.167,262.833 254.167,263.167 255.5,263.5C 254.791,264.404 253.791,264.737 252.5,264.5C 251.833,262.5 251.167,260.5 250.5,258.5C 248.833,258.5 247.167,258.5 245.5,258.5C 243.898,256.926 241.898,256.259 239.5,256.5C 239.027,255.094 238.027,254.427 236.5,254.5C 236.167,254.5 235.833,254.5 235.5,254.5C 235.167,253.833 234.833,253.167 234.5,252.5C 233.055,249.676 231.889,246.676 231,243.5C 230.333,195.833 230.333,148.167 231,100.5C 232.343,97.1381 234.176,94.1381 236.5,91.5C 238.404,91.2624 239.738,90.2624 240.5,88.5 Z M 276.5,102.5 C 276.5,102.167 276.5,101.833 276.5,101.5C 277.363,100.537 278.03,100.537 278.5,101.5C 278.043,102.298 277.376,102.631 276.5,102.5 Z M 242.5,234.5 C 244.638,234.938 246.972,235.105 249.5,235C 249.68,238.675 249.347,242.508 248.5,246.5C 247.817,246.863 247.15,247.196 246.5,247.5C 246.5,248.167 246.167,248.5 245.5,248.5C 244.833,247.833 244.167,247.167 243.5,246.5C 243.068,245.29 242.401,244.29 241.5,243.5C 241.591,241.302 240.925,240.969 239.5,242.5C 239.517,240.435 239.85,238.435 240.5,236.5C 240.833,236.5 241.167,236.5 241.5,236.5C 241.328,235.508 241.662,234.842 242.5,234.5 Z"/></g>
<g><path style="opacity:0.01" fill="#e3e2e3" d="M 359.5,91.5 C 361.433,91.7286 363.1,92.5619 364.5,94C 364.167,94.3333 363.833,94.6667 363.5,95C 364.861,96.5843 365.528,98.4176 365.5,100.5C 363.761,97.3649 361.761,94.3649 359.5,91.5 Z"/></g>
<g><path style="opacity:0.011" fill="#e2e2e2" d="M 273.5,100.5 C 276.304,99.3622 279.304,99.1955 282.5,100C 283.381,100.708 284.047,101.542 284.5,102.5C 285.043,102.56 285.376,102.893 285.5,103.5C 283.604,104.466 281.604,104.799 279.5,104.5C 279.5,104.167 279.5,103.833 279.5,103.5C 278.5,103.5 277.5,103.5 276.5,103.5C 276.5,103.167 276.5,102.833 276.5,102.5C 277.376,102.631 278.043,102.298 278.5,101.5C 278.03,100.537 277.363,100.537 276.5,101.5C 275.791,100.596 274.791,100.263 273.5,100.5 Z"/></g>
<g><path style="opacity:0.01" fill="#e0e0e0" d="M 273.5,101.5 C 274.5,101.5 275.5,101.5 276.5,101.5C 276.5,101.833 276.5,102.167 276.5,102.5C 275.508,102.328 274.842,102.662 274.5,103.5C 273.167,103.833 273.167,104.167 274.5,104.5C 272.983,106.936 273.316,109.102 275.5,111C 278.992,110.557 282.325,110.724 285.5,111.5C 283.585,111.216 281.919,111.549 280.5,112.5C 278.08,112.292 275.747,112.626 273.5,113.5C 272.522,113.023 271.689,112.357 271,111.5C 270.505,113.473 270.338,115.473 270.5,117.5C 269.566,116.432 269.232,115.099 269.5,113.5C 269.5,112.167 269.5,110.833 269.5,109.5C 261.833,109.5 254.167,109.5 246.5,109.5C 245.833,109.5 245.5,109.167 245.5,108.5C 253.84,108.666 262.173,108.5 270.5,108C 269.944,107.617 269.611,107.117 269.5,106.5C 270.167,106.5 270.5,106.167 270.5,105.5C 271.338,105.158 271.672,104.492 271.5,103.5C 272.167,103.5 272.5,103.167 272.5,102.5C 273.167,102.5 273.5,102.167 273.5,101.5 Z"/></g>
<g><path style="opacity:0.012" fill="#e2e2e2" d="M 325.5,100.5 C 324.041,100.433 322.708,100.766 321.5,101.5C 322.261,102.391 323.261,103.058 324.5,103.5C 324.088,102.218 324.754,101.218 326.5,100.5C 327.5,100.833 328.167,101.5 328.5,102.5C 328.833,102.5 329.167,102.5 329.5,102.5C 326.23,104.225 322.564,105.225 318.5,105.5C 318.167,104.167 317.833,104.167 317.5,105.5C 316.853,106.274 316.52,107.274 316.5,108.5C 316.64,110.03 317.307,111.03 318.5,111.5C 318.833,112.833 319.167,112.833 319.5,111.5C 321.167,111.5 322.833,111.5 324.5,111.5C 325.711,113.563 324.877,114.563 322,114.5C 320.564,114.441 319.231,114.108 318,113.5C 317.333,116.167 316.667,116.167 316,113.5C 316.536,119.617 317.036,125.951 317.5,132.5C 315.361,124.763 314.028,116.763 313.5,108.5C 313.5,107.5 313.5,106.5 313.5,105.5C 313.427,103.973 314.094,102.973 315.5,102.5C 315.953,101.542 316.619,100.708 317.5,100C 320.367,99.1993 323.034,99.3659 325.5,100.5 Z M 325.5,100.5 C 325.833,100.5 326.167,100.5 326.5,100.5C 324.754,101.218 324.088,102.218 324.5,103.5C 323.261,103.058 322.261,102.391 321.5,101.5C 322.708,100.766 324.041,100.433 325.5,100.5 Z"/></g>
<g><path style="opacity:0.069" fill="#eeeeee" d="M 236.5,91.5 C 234.176,94.1381 232.343,97.1381 231,100.5C 230.333,148.167 230.333,195.833 231,243.5C 231.889,246.676 233.055,249.676 234.5,252.5C 233.603,251.402 232.77,251.402 232,252.5C 231.333,250.5 230.667,248.5 230,246.5C 229.333,197.5 229.333,148.5 230,99.5C 230.643,95.8951 232.31,92.8951 235,90.5C 235.383,91.056 235.883,91.3893 236.5,91.5 Z"/></g>
<g><path style="opacity:1" fill="#242021" d="M 356.5,89.5 C 357.167,89.5 357.833,89.5 358.5,89.5C 358.833,90.1667 359.167,90.8333 359.5,91.5C 361.761,94.3649 363.761,97.3649 365.5,100.5C 365.667,139.835 365.5,179.168 365,218.5C 363.569,222.374 361.403,225.707 358.5,228.5C 356.847,228.66 355.514,229.326 354.5,230.5C 353.833,230.5 353.167,230.5 352.5,230.5C 325.498,230.667 298.498,230.5 271.5,230C 276.864,229.829 282.198,229.329 287.5,228.5C 281.528,227.67 275.528,227.17 269.5,227C 272.709,225.206 276.042,224.039 279.5,223.5C 286.578,223.657 294.578,223.657 303.5,223.5C 303.083,220.921 303.75,218.754 305.5,217C 304.137,214.871 304.471,214.371 306.5,215.5C 307.172,214.051 307.839,212.718 308.5,211.5C 309.331,215.51 311.164,216.177 314,213.5C 314.5,200.838 314.667,188.171 314.5,175.5C 316.292,175.366 317.958,175.699 319.5,176.5C 319.333,189.171 319.5,201.838 320,214.5C 321.938,215.86 323.604,215.527 325,213.5C 325.5,200.838 325.667,188.171 325.5,175.5C 327.144,175.286 328.644,175.62 330,176.5C 330.169,189.34 330.669,202.007 331.5,214.5C 332.947,215.885 333.947,215.552 334.5,213.5C 335.117,213.389 335.617,213.056 336,212.5C 336.499,206.843 336.666,201.176 336.5,195.5C 336.5,194.167 336.5,192.833 336.5,191.5C 337.833,185.5 337.833,179.5 336.5,173.5C 334.234,169.564 331.234,166.231 327.5,163.5C 326.662,163.158 326.328,162.492 326.5,161.5C 326.41,151.482 326.743,141.482 327.5,131.5C 327.5,130.833 327.5,130.167 327.5,129.5C 329.344,124.449 330.344,119.116 330.5,113.5C 331.404,112.791 331.737,111.791 331.5,110.5C 337.69,110.823 343.69,110.49 349.5,109.5C 350.167,109.5 350.5,109.167 350.5,108.5C 351.774,107.811 351.774,106.977 350.5,106C 343.842,105.5 337.175,105.334 330.5,105.5C 330.5,104.5 330.5,103.5 330.5,102.5C 330.811,101.522 331.478,100.855 332.5,100.5C 333.451,101.326 334.451,101.492 335.5,101C 334.549,100.282 334.383,99.4491 335,98.5C 340.955,99.2075 346.955,99.8741 353,100.5C 353.5,100.167 354,99.8333 354.5,99.5C 353.098,98.1575 353.431,97.3242 355.5,97C 354.167,96 354.167,95 355.5,94C 353.5,93.3333 351.5,92.6667 349.5,92C 351.441,90.0972 353.774,89.2639 356.5,89.5 Z M 334.5,177.5 C 332.84,189.299 331.84,201.299 331.5,213.5C 331.168,201.149 331.501,188.815 332.5,176.5C 333.944,175.019 334.611,175.352 334.5,177.5 Z M 336.5,191.5 C 336.5,192.833 336.5,194.167 336.5,195.5C 335.674,199.982 335.174,204.649 335,209.5C 334.346,210.696 333.846,210.696 333.5,209.5C 333.892,200.466 334.225,191.466 334.5,182.5C 334.5,182.167 334.5,181.833 334.5,181.5C 335.833,180.5 335.833,179.5 334.5,178.5C 334.5,178.167 334.5,177.833 334.5,177.5C 335.117,177.389 335.617,177.056 336,176.5C 336.499,181.489 336.666,186.489 336.5,191.5 Z"/></g>
<g><path style="opacity:0.067" fill="#efefef" d="M 365.5,100.5 C 366.665,139.998 366.831,179.665 366,219.5C 365.293,221.081 364.46,222.581 363.5,224C 363.833,224.333 364.167,224.667 364.5,225C 362.951,226.214 361.785,227.714 361,229.5C 359.53,230.267 358.03,230.933 356.5,231.5C 356.158,230.662 355.492,230.328 354.5,230.5C 355.514,229.326 356.847,228.66 358.5,228.5C 361.403,225.707 363.569,222.374 365,218.5C 365.5,179.168 365.667,139.835 365.5,100.5 Z"/></g>
<g><path style="opacity:0.478" fill="#b5b4b4" d="M 269.5,105.5 C 269.5,105.833 269.5,106.167 269.5,106.5C 261.975,107.686 254.475,107.686 247,106.5C 246.283,107.044 245.783,107.711 245.5,108.5C 244.226,107.811 244.226,106.977 245.5,106C 253.493,105.5 261.493,105.334 269.5,105.5 Z"/></g>
<g><path style="opacity:0.559" fill="#b5b4b5" d="M 275.5,105.5 C 288.167,105.5 300.833,105.5 313.5,105.5C 313.5,106.5 313.5,107.5 313.5,108.5C 312.833,108.833 312.167,109.167 311.5,109.5C 299.322,109.828 287.322,109.495 275.5,108.5C 287.518,108.832 299.518,108.499 311.5,107.5C 298.807,106.82 286.807,106.82 275.5,107.5C 275.5,106.833 275.5,106.167 275.5,105.5 Z"/></g>
<g><path style="opacity:0.48" fill="#aaa9a9" d="M 320.5,106.5 C 323.625,105.521 326.958,105.187 330.5,105.5C 337.175,105.334 343.842,105.5 350.5,106C 351.774,106.977 351.774,107.811 350.5,108.5C 350.217,107.711 349.717,107.044 349,106.5C 339.276,107.604 329.776,107.604 320.5,106.5 Z"/></g>
<g><path style="opacity:0.181" fill="#d0d0d0" d="M 320.5,106.5 C 330.111,108.474 340.111,109.141 350.5,108.5C 350.5,109.167 350.167,109.5 349.5,109.5C 339.5,109.5 329.5,109.5 319.5,109.5C 319.263,108.209 319.596,107.209 320.5,106.5 Z"/></g>
<g><path style="opacity:0.757" fill="#4d4c4d" d="M 246.5,109.5 C 254.167,109.5 261.833,109.5 269.5,109.5C 269.5,110.833 269.5,112.167 269.5,113.5C 268.596,112.791 268.263,111.791 268.5,110.5C 260.981,110.825 253.648,110.492 246.5,109.5 Z"/></g>
<g><path style="opacity:0.749" fill="#504e4f" d="M 274.5,103.5 C 275.167,103.5 275.833,103.5 276.5,103.5C 277.5,103.5 278.5,103.5 279.5,103.5C 279.5,103.833 279.5,104.167 279.5,104.5C 277.901,104.232 276.568,104.566 275.5,105.5C 275.5,106.167 275.5,106.833 275.5,107.5C 275.5,107.833 275.5,108.167 275.5,108.5C 287.322,109.495 299.322,109.828 311.5,109.5C 303.35,110.493 295.017,110.826 286.5,110.5C 286.784,112.415 286.451,114.081 285.5,115.5C 285.5,114.5 285.5,113.5 285.5,112.5C 285.5,112.167 285.5,111.833 285.5,111.5C 282.325,110.724 278.992,110.557 275.5,111C 273.316,109.102 272.983,106.936 274.5,104.5C 274.5,104.167 274.5,103.833 274.5,103.5 Z"/></g>
<g><path style="opacity:0.76" fill="#505050" d="M 329.5,102.5 C 329.833,102.5 330.167,102.5 330.5,102.5C 330.5,103.5 330.5,104.5 330.5,105.5C 326.958,105.187 323.625,105.521 320.5,106.5C 319.596,107.209 319.263,108.209 319.5,109.5C 329.5,109.5 339.5,109.5 349.5,109.5C 343.69,110.49 337.69,110.823 331.5,110.5C 331.737,111.791 331.404,112.791 330.5,113.5C 330.5,112.5 330.5,111.5 330.5,110.5C 328.265,110.205 326.265,110.539 324.5,111.5C 322.833,111.5 321.167,111.5 319.5,111.5C 319.167,111.5 318.833,111.5 318.5,111.5C 317.659,109.621 317.325,107.621 317.5,105.5C 317.833,105.5 318.167,105.5 318.5,105.5C 322.564,105.225 326.23,104.225 329.5,102.5 Z"/></g>
<g><path style="opacity:0.008" fill="#f2f2f2" d="M 280.5,112.5 C 282.167,112.5 283.833,112.5 285.5,112.5C 285.5,113.5 285.5,114.5 285.5,115.5C 285.768,117.099 285.434,118.432 284.5,119.5C 284.66,117.801 284.494,116.134 284,114.5C 283.667,114.833 283.333,115.167 283,115.5C 282.302,114.309 281.469,113.309 280.5,112.5 Z"/></g>
<g><path style="opacity:1" fill="#232021" d="M 313.5,108.5 C 314.028,116.763 315.361,124.763 317.5,132.5C 317.5,141.833 317.5,151.167 317.5,160.5C 316.244,164.016 314.244,167.016 311.5,169.5C 311.5,169.833 311.5,170.167 311.5,170.5C 311.167,170.5 310.833,170.5 310.5,170.5C 308.856,170.81 307.856,171.81 307.5,173.5C 306.844,174.622 306.511,175.955 306.5,177.5C 307.366,188.823 308.033,200.156 308.5,211.5C 307.839,212.718 307.172,214.051 306.5,215.5C 304.471,214.371 304.137,214.871 305.5,217C 303.75,218.754 303.083,220.921 303.5,223.5C 294.578,223.657 286.578,223.657 279.5,223.5C 279.046,222.134 278.713,220.634 278.5,219C 279.5,218.667 280.5,218.333 281.5,218C 278.045,217.88 275.378,217.38 273.5,216.5C 278.034,216.733 282.368,215.9 286.5,214C 287.71,212.961 288.71,211.794 289.5,210.5C 289.5,209.833 289.833,209.5 290.5,209.5C 293.518,208.145 294.851,205.812 294.5,202.5C 299.063,191.844 298.229,181.511 292,171.5C 288.268,167.938 284.768,164.271 281.5,160.5C 281.513,146.757 282.513,133.091 284.5,119.5C 285.434,118.432 285.768,117.099 285.5,115.5C 286.451,114.081 286.784,112.415 286.5,110.5C 295.017,110.826 303.35,110.493 311.5,109.5C 312.167,109.167 312.833,108.833 313.5,108.5 Z"/></g>
<g><path style="opacity:0.01" fill="#fefffe" d="M 326.5,114.5 C 326.56,113.957 326.893,113.624 327.5,113.5C 328.583,114.365 328.749,115.365 328,116.5C 327.722,115.584 327.222,114.918 326.5,114.5 Z"/></g>
<g><path style="opacity:0.329" fill="#b2b1b2" d="M 324.5,111.5 C 326.265,110.539 328.265,110.205 330.5,110.5C 330.5,111.5 330.5,112.5 330.5,113.5C 330.344,119.116 329.344,124.449 327.5,129.5C 328.319,125.784 328.319,122.118 327.5,118.5C 329.173,116.477 329.84,114.144 329.5,111.5C 327.833,111.5 326.167,111.5 324.5,111.5 Z"/></g>
<g><path style="opacity:0.188" fill="#cccccc" d="M 284.5,119.5 C 282.513,133.091 281.513,146.757 281.5,160.5C 279.934,146.679 280.934,133.013 284.5,119.5 Z"/></g>
<g><path style="opacity:0.424" fill="#a6a5a6" d="M 270.5,118.5 C 272.982,128.718 274.315,139.218 274.5,150C 274.105,154.54 274.105,158.874 274.5,163C 273.473,163.513 272.473,164.013 271.5,164.5C 273.036,159.844 273.703,155.011 273.5,150C 272.663,139.48 271.663,128.98 270.5,118.5 Z"/></g>
<g><path style="opacity:0.447" fill="#a5a3a4" d="M 327.5,131.5 C 326.743,141.482 326.41,151.482 326.5,161.5C 325.835,157.849 325.501,154.015 325.5,150C 325.37,143.601 326.037,137.434 327.5,131.5 Z"/></g>
<g><path style="opacity:0.725" fill="#959394" d="M 317.5,132.5 C 318.943,138.1 319.61,143.933 319.5,150C 319.499,153.683 319.165,157.183 318.5,160.5C 318.167,160.5 317.833,160.5 317.5,160.5C 317.5,151.167 317.5,141.833 317.5,132.5 Z"/></g>
<g><path style="opacity:0.022" fill="#c5c4c4" d="M 281.5,160.5 C 284.768,164.271 288.268,167.938 292,171.5C 298.229,181.511 299.063,191.844 294.5,202.5C 298.963,186.57 294.963,173.904 282.5,164.5C 281.754,163.264 281.421,161.93 281.5,160.5 Z"/></g>
<g><path style="opacity:0.009" fill="#efefef" d="M 271.5,164.5 C 270.829,165.847 270.829,167.014 271.5,168C 270.016,168.662 268.683,169.496 267.5,170.5C 267.5,169.833 267.167,169.5 266.5,169.5C 267.833,167.5 269.5,165.833 271.5,164.5 Z"/></g>
<g><path style="opacity:0.01" fill="#e5e5e5" d="M 317.5,160.5 C 317.833,160.5 318.167,160.5 318.5,160.5C 318.414,161.496 318.748,162.329 319.5,163C 316.906,164.339 315.406,166.506 315,169.5C 314.014,168.829 312.847,168.829 311.5,169.5C 314.244,167.016 316.244,164.016 317.5,160.5 Z"/></g>
<g><path style="opacity:0.012" fill="#dad9d9" d="M 327.5,163.5 C 331.234,166.231 334.234,169.564 336.5,173.5C 337.833,179.5 337.833,185.5 336.5,191.5C 336.666,186.489 336.499,181.489 336,176.5C 335.617,177.056 335.117,177.389 334.5,177.5C 334.611,175.352 333.944,175.019 332.5,176.5C 331.501,188.815 331.168,201.149 331.5,213.5C 331.5,213.833 331.5,214.167 331.5,214.5C 330.669,202.007 330.169,189.34 330,176.5C 328.644,175.62 327.144,175.286 325.5,175.5C 327.167,174.833 328.833,174.167 330.5,173.5C 331.167,173.5 331.5,173.167 331.5,172.5C 332.833,172.167 332.833,171.833 331.5,171.5C 330.679,168.694 329.012,166.527 326.5,165C 327.056,164.617 327.389,164.117 327.5,163.5 Z"/></g>
<g><path style="opacity:0.008" fill="#f5f5f5" d="M 310.5,170.5 C 310.833,171.833 311.167,171.833 311.5,170.5C 312.239,170.369 312.906,170.536 313.5,171C 312.5,172 311.5,173 310.5,174C 310.833,174.167 311.167,174.333 311.5,174.5C 313.458,172.731 315.458,172.065 317.5,172.5C 316.398,173.176 315.398,173.842 314.5,174.5C 313.833,174.5 313.5,174.833 313.5,175.5C 312.528,177.493 311.195,177.826 309.5,176.5C 309.633,173.075 308.967,172.742 307.5,175.5C 307.5,174.833 307.5,174.167 307.5,173.5C 307.856,171.81 308.856,170.81 310.5,170.5 Z"/></g>
<g><path style="opacity:0.01" fill="#fefffe" d="M 331.5,171.5 C 331.5,171.833 331.5,172.167 331.5,172.5C 330.833,172.5 330.5,172.833 330.5,173.5C 329.022,173.762 327.689,173.429 326.5,172.5C 328.109,172.611 329.775,172.278 331.5,171.5 Z"/></g>
<g><path style="opacity:0.012" fill="#e7e7e7" d="M 266.5,169.5 C 267.167,169.5 267.5,169.833 267.5,170.5C 267.369,171.239 267.536,171.906 268,172.5C 269,172.167 270,171.833 271,171.5C 271.765,173.066 271.598,174.399 270.5,175.5C 270.591,173.302 269.925,172.969 268.5,174.5C 268.167,173.167 267.833,173.167 267.5,174.5C 263.5,174.833 263.5,175.167 267.5,175.5C 267.5,175.833 267.5,176.167 267.5,176.5C 266.833,177.167 266.167,177.833 265.5,178.5C 265.167,177.167 264.833,177.167 264.5,178.5C 263.163,179.315 262.163,180.482 261.5,182C 262.044,182.717 262.711,183.217 263.5,183.5C 263.5,183.833 263.5,184.167 263.5,184.5C 263.007,191.095 264.007,197.429 266.5,203.5C 265.298,204.405 263.964,204.405 262.5,203.5C 262.672,202.508 262.338,201.842 261.5,201.5C 262.278,200.844 262.944,200.011 263.5,199C 262.746,194.205 262.246,189.372 262,184.5C 261.667,188.5 261.333,192.5 261,196.5C 260.019,190.136 259.519,190.469 259.5,197.5C 258.349,192.35 258.183,187.016 259,181.5C 260.262,176.626 262.762,172.626 266.5,169.5 Z"/></g>
<g><path style="opacity:0.549" fill="#a1a2a2" d="M 314.5,175.5 C 314.5,175.167 314.5,174.833 314.5,174.5C 316.781,174.077 318.448,174.744 319.5,176.5C 317.958,175.699 316.292,175.366 314.5,175.5 Z"/></g>
<g><path style="opacity:0.008" fill="#fefffe" d="M 320.5,176.5 C 321.518,173.972 322.518,174.139 323.5,177C 322.765,186.525 322.265,196.358 322,206.5C 321.83,196.325 321.33,186.325 320.5,176.5 Z"/></g>
<g><path style="opacity:0.008" fill="#e5e5e5" d="M 334.5,177.5 C 334.5,177.833 334.5,178.167 334.5,178.5C 333.167,179.5 333.167,180.5 334.5,181.5C 334.5,181.833 334.5,182.167 334.5,182.5C 334.225,191.466 333.892,200.466 333.5,209.5C 333.846,210.696 334.346,210.696 335,209.5C 335.174,204.649 335.674,199.982 336.5,195.5C 336.666,201.176 336.499,206.843 336,212.5C 335.617,213.056 335.117,213.389 334.5,213.5C 333.947,215.552 332.947,215.885 331.5,214.5C 331.5,214.167 331.5,213.833 331.5,213.5C 331.84,201.299 332.84,189.299 334.5,177.5 Z"/></g>
<g><path style="opacity:0.435" fill="#a5a5a5" d="M 264.5,178.5 C 264.833,178.5 265.167,178.5 265.5,178.5C 265.741,180.898 265.074,182.898 263.5,184.5C 263.5,184.167 263.5,183.833 263.5,183.5C 263.629,181.784 263.962,180.117 264.5,178.5 Z"/></g>
<g><path style="opacity:0.213" fill="#afaeaf" d="M 325.5,175.5 C 325.667,188.171 325.5,200.838 325,213.5C 323.604,215.527 321.938,215.86 320,214.5C 319.5,201.838 319.333,189.171 319.5,176.5C 319.833,176.5 320.167,176.5 320.5,176.5C 320.171,189.011 320.505,201.345 321.5,213.5C 321.833,214.833 322.167,214.833 322.5,213.5C 323.117,213.389 323.617,213.056 324,212.5C 324.169,199.993 324.669,187.66 325.5,175.5 Z"/></g>
<g><path style="opacity:0.139" fill="#b8b8b8" d="M 270.5,175.5 C 267.39,183.6 266.723,191.934 268.5,200.5C 266.97,197.305 266.304,193.805 266.5,190C 266.397,185.695 267.063,181.528 268.5,177.5C 268.376,176.893 268.043,176.56 267.5,176.5C 267.5,176.167 267.5,175.833 267.5,175.5C 267.5,175.167 267.5,174.833 267.5,174.5C 267.833,174.5 268.167,174.5 268.5,174.5C 269.925,172.969 270.591,173.302 270.5,175.5 Z"/></g>
<g><path style="opacity:0.984" fill="#2e2d2e" d="M 267.5,176.5 C 268.043,176.56 268.376,176.893 268.5,177.5C 267.063,181.528 266.397,185.695 266.5,190C 266.304,193.805 266.97,197.305 268.5,200.5C 269.11,201.391 269.443,202.391 269.5,203.5C 269.631,204.239 269.464,204.906 269,205.5C 268.292,204.619 267.458,203.953 266.5,203.5C 264.007,197.429 263.007,191.095 263.5,184.5C 265.074,182.898 265.741,180.898 265.5,178.5C 266.167,177.833 266.833,177.167 267.5,176.5 Z"/></g>
<g><path style="opacity:0.757" fill="#8e8c8c" d="M 259.5,198.5 C 260.167,199.5 260.833,200.5 261.5,201.5C 261.5,202.167 261.5,202.833 261.5,203.5C 259.787,202.365 259.12,200.698 259.5,198.5 Z"/></g>
<g><path style="opacity:0.635" fill="#b7b6b6" d="M 266.5,203.5 C 267.458,203.953 268.292,204.619 269,205.5C 269.464,204.906 269.631,204.239 269.5,203.5C 271.3,204.895 271.634,206.561 270.5,208.5C 269.482,207.807 268.482,207.141 267.5,206.5C 266.89,205.609 266.557,204.609 266.5,203.5 Z"/></g>
<g><path style="opacity:0.017" fill="#fefffe" d="M 267.5,206.5 C 267.5,207.167 267.5,207.833 267.5,208.5C 266.833,208.5 266.167,208.5 265.5,208.5C 265.833,207.5 266.5,206.833 267.5,206.5 Z"/></g>
<g><path style="opacity:0.525" fill="#908f90" d="M 294.5,202.5 C 294.851,205.812 293.518,208.145 290.5,209.5C 291.584,206.996 292.917,204.663 294.5,202.5 Z"/></g>
<g><path style="opacity:0.009" fill="#fefffe" d="M 322.5,213.5 C 322.167,213.5 321.833,213.5 321.5,213.5C 321.338,211.473 321.505,209.473 322,207.5C 323.332,209.55 323.498,211.55 322.5,213.5 Z"/></g>
<g><path style="opacity:0.275" fill="#bbb9ba" d="M 307.5,173.5 C 307.5,174.167 307.5,174.833 307.5,175.5C 307.162,178.157 307.829,180.49 309.5,182.5C 308.496,192.475 308.663,202.475 310,212.5C 310.333,210.167 310.667,207.833 311,205.5C 312.688,206.325 312.855,207.325 311.5,208.5C 312.098,209.795 312.598,211.128 313,212.5C 313.5,200.171 313.667,187.838 313.5,175.5C 313.833,175.5 314.167,175.5 314.5,175.5C 314.667,188.171 314.5,200.838 314,213.5C 311.164,216.177 309.331,215.51 308.5,211.5C 308.033,200.156 307.366,188.823 306.5,177.5C 306.511,175.955 306.844,174.622 307.5,173.5 Z"/></g>
<g><path style="opacity:0.007" fill="#fefffe" d="M 309.5,176.5 C 309.577,177.75 310.244,178.583 311.5,179C 310.552,179.483 309.552,179.649 308.5,179.5C 308.263,178.209 308.596,177.209 309.5,176.5 Z"/></g>
<g><path style="opacity:0.013" fill="#e3e2e2" d="M 263.5,207.5 C 264.167,207.833 264.833,208.167 265.5,208.5C 266.167,209.833 266.833,209.833 267.5,208.5C 270.298,209.733 272.465,211.733 274,214.5C 276.667,214.5 279.333,214.5 282,214.5C 282.605,212.519 283.605,212.185 285,213.5C 286.487,212.747 286.654,211.914 285.5,211C 286.878,209.666 288.211,209.499 289.5,210.5C 288.71,211.794 287.71,212.961 286.5,214C 282.368,215.9 278.034,216.733 273.5,216.5C 271.651,215.407 269.984,214.074 268.5,212.5C 266.089,211.483 264.422,209.816 263.5,207.5 Z"/></g>
<g><path style="opacity:0.009" fill="#f5f2f5" d="M 352.5,231.5 C 352.5,231.167 352.5,230.833 352.5,230.5C 353.167,230.5 353.833,230.5 354.5,230.5C 354.842,231.338 355.508,231.672 356.5,231.5C 355.791,232.404 354.791,232.737 353.5,232.5C 353.5,231.833 353.167,231.5 352.5,231.5 Z"/></g>
<g><path style="opacity:0.024" fill="#f7f6f6" d="M 266.5,232.5 C 266.5,232.167 266.5,231.833 266.5,231.5C 294.5,231.5 322.5,231.5 350.5,231.5C 351.209,232.404 352.209,232.737 353.5,232.5C 352.391,233.29 351.058,233.79 349.5,234C 322.458,234.184 295.458,234.684 268.5,235.5C 268.068,234.29 267.401,233.29 266.5,232.5 Z"/></g>
<g><path style="opacity:0.027" fill="#e3e2e2" d="M 248.5,250.5 C 248.5,250.167 248.5,249.833 248.5,249.5C 249.183,248.356 248.849,248.356 247.5,249.5C 246.508,249.672 245.842,249.338 245.5,248.5C 246.167,248.5 246.5,248.167 246.5,247.5C 247.15,247.196 247.817,246.863 248.5,246.5C 249.347,242.508 249.68,238.675 249.5,235C 246.972,235.105 244.638,234.938 242.5,234.5C 243.167,233.833 243.833,233.167 244.5,232.5C 246.607,231.532 248.941,231.198 251.5,231.5C 251.5,237.833 251.5,244.167 251.5,250.5C 250.5,250.5 249.5,250.5 248.5,250.5 Z"/></g>
<g><path style="opacity:0.008" fill="#fefffe" d="M 268.5,235.5 C 267.833,236.167 267.833,236.167 268.5,235.5 Z"/></g>
<g><path style="opacity:0.01" fill="#fefffe" d="M 241.5,236.5 C 244.001,236.511 244.168,237.178 242,238.5C 241.536,237.906 241.369,237.239 241.5,236.5 Z"/></g>
<g><path style="opacity:0.576" fill="#908d8e" d="M 240.5,236.5 C 239.85,238.435 239.517,240.435 239.5,242.5C 238.861,241.903 238.528,241.07 238.5,240C 238.387,238.301 239.053,237.134 240.5,236.5 Z"/></g>
<g><path style="opacity:0.004" fill="#fefffe" d="M 267.5,238.5 C 268.525,238.897 268.692,239.563 268,240.5C 267.536,239.906 267.369,239.239 267.5,238.5 Z"/></g>
<g><path style="opacity:0.004" fill="#f9f9f9" d="M 241.5,243.5 C 240.833,243.5 240.5,243.833 240.5,244.5C 240.167,244.5 239.833,244.5 239.5,244.5C 239.5,243.833 239.5,243.167 239.5,242.5C 240.925,240.969 241.591,241.302 241.5,243.5 Z"/></g>
<g><path style="opacity:0.008" fill="#fefffe" d="M 269.5,247.5 C 268.883,247.611 268.383,247.944 268,248.5C 267.346,243.96 267.846,243.627 269.5,247.5 Z"/></g>
<g><path style="opacity:0.008" fill="#fefffe" d="M 269.5,247.5 C 270.833,248.167 270.833,248.167 269.5,247.5 Z"/></g>
<g><path style="opacity:0.008" fill="#fefffe" d="M 362.5,248.5 C 361.833,247.167 361.833,247.167 362.5,248.5 Z"/></g>
<g><path style="opacity:0.078" fill="#c0bfbf" d="M 239.5,244.5 C 239.833,244.5 240.167,244.5 240.5,244.5C 241.242,246.35 242.242,247.016 243.5,246.5C 244.167,247.167 244.833,247.833 245.5,248.5C 245.842,249.338 246.508,249.672 247.5,249.5C 247.833,249.5 248.167,249.5 248.5,249.5C 248.5,249.833 248.5,250.167 248.5,250.5C 247.127,250.657 245.793,250.49 244.5,250C 241.921,248.924 240.254,247.091 239.5,244.5 Z"/></g>
<g><path style="opacity:0.188" fill="#ccc8cc" d="M 266.5,231.5 C 266.5,231.833 266.5,232.167 266.5,232.5C 266.5,238.167 266.5,243.833 266.5,249.5C 298.863,249.8 330.863,249.467 362.5,248.5C 364.262,249.262 365.262,250.596 365.5,252.5C 364.711,252.217 364.044,251.717 363.5,251C 330.835,250.5 298.168,250.333 265.5,250.5C 265.177,243.978 265.51,237.645 266.5,231.5 Z"/></g>
<g><path style="opacity:0.039" fill="#fefffe" d="M 235.5,254.5 C 234.833,255.167 234.833,255.167 235.5,254.5 Z"/></g>
<g><path style="opacity:0.014" fill="#dfdede" d="M 236.5,254.5 C 238.027,254.427 239.027,255.094 239.5,256.5C 238.167,256.833 238.167,257.167 239.5,257.5C 239.103,258.525 238.437,258.692 237.5,258C 237.381,256.855 237.048,255.688 236.5,254.5 Z"/></g>
<g><path style="opacity:0.667" fill="#7b7879" d="M 239.5,257.5 C 239.5,257.167 239.5,256.833 239.5,256.5C 241.898,256.259 243.898,256.926 245.5,258.5C 244.167,258.5 242.833,258.5 241.5,258.5C 241.158,257.662 240.492,257.328 239.5,257.5 Z"/></g>
<g><path style="opacity:0.004" fill="#f0f0f0" d="M 365.5,256.5 C 365.737,257.791 365.404,258.791 364.5,259.5C 364.5,258.833 364.167,258.5 363.5,258.5C 363.833,257.5 364.5,256.833 365.5,256.5 Z"/></g>
<g><path style="opacity:0.008" fill="#fefffe" d="M 241.5,258.5 C 240.833,259.167 240.833,259.167 241.5,258.5 Z"/></g>
<g><path style="opacity:0.137" fill="#dedcdc" d="M 266.5,259.5 C 266.5,259.167 266.5,258.833 266.5,258.5C 298.5,258.5 330.5,258.5 362.5,258.5C 362.5,258.833 362.5,259.167 362.5,259.5C 361.153,260.171 359.986,260.171 359,259.5C 358.667,260.167 358.333,260.833 358,261.5C 327.724,259.512 297.224,258.846 266.5,259.5 Z"/></g>
<g><path style="opacity:0.021" fill="#f6f6f6" d="M 245.5,258.5 C 247.167,258.5 248.833,258.5 250.5,258.5C 249.99,261.388 250.656,263.721 252.5,265.5C 252.265,266.097 251.765,266.43 251,266.5C 249.989,265.944 249.156,265.278 248.5,264.5C 247.047,263.175 247.381,262.342 249.5,262C 247.1,260.943 244.767,260.276 242.5,260C 243.737,259.768 244.737,259.268 245.5,258.5 Z"/></g>
<g><path style="opacity:0.006" fill="#fefffe" d="M 362.5,259.5 C 363.167,259.5 363.833,259.5 364.5,259.5C 363.833,260.833 363.167,260.833 362.5,259.5 Z"/></g>
<g><path style="opacity:0.013" fill="#fefffe" d="M 267.5,260.5 C 268.873,260.343 270.207,260.51 271.5,261C 269.667,261.5 268.5,262.667 268,264.5C 267.51,263.207 267.343,261.873 267.5,260.5 Z"/></g>
<g><path style="opacity:0.006" fill="#fefffe" d="M 256.5,262.5 C 256.5,262.167 256.5,261.833 256.5,261.5C 257.5,261.5 258.5,261.5 259.5,261.5C 259.5,262.167 259.833,262.5 260.5,262.5C 260.5,262.833 260.5,263.167 260.5,263.5C 259.167,263.167 257.833,262.833 256.5,262.5 Z"/></g>
<g><path style="opacity:0.388" fill="#999a99" d="M 250.5,258.5 C 251.167,260.5 251.833,262.5 252.5,264.5C 252.5,264.833 252.5,265.167 252.5,265.5C 250.656,263.721 249.99,261.388 250.5,258.5 Z"/></g>
<g><path style="opacity:0.016" fill="#fefffe" d="M 255.5,262.5 C 255.833,262.5 256.167,262.5 256.5,262.5C 256.315,263.17 255.981,263.17 255.5,262.5 Z"/></g>
<g><path style="opacity:0.455" fill="#a5a7a7" d="M 266.5,258.5 C 266.5,258.833 266.5,259.167 266.5,259.5C 266.808,261.924 266.474,264.257 265.5,266.5C 264.482,265.807 263.482,265.141 262.5,264.5C 262.5,263.833 262.167,263.5 261.5,263.5C 261.5,262.833 261.167,262.5 260.5,262.5C 259.833,262.5 259.5,262.167 259.5,261.5C 259.5,261.167 259.5,260.833 259.5,260.5C 261.716,261.203 263.549,262.536 265,264.5C 265.191,262.292 265.691,260.292 266.5,258.5 Z"/></g>
<g><path style="opacity:0.013" fill="#fefffe" d="M 260.5,263.5 C 260.833,263.5 261.167,263.5 261.5,263.5C 262.167,263.5 262.5,263.833 262.5,264.5C 261.699,266.793 261.032,266.46 260.5,263.5 Z"/></g>
<g><path style="opacity:0.008" fill="#fefffe" d="M 248.5,264.5 C 247.833,265.167 247.833,265.167 248.5,264.5 Z"/></g>
<g><path style="opacity:0.016" fill="#fefffe" d="M 253.5,265.5 C 254.833,266.167 254.833,266.167 253.5,265.5 Z"/></g>
<g><path style="opacity:0.01" fill="#fbfbfb" d="M 302.5,287.5 C 302.5,287.833 302.5,288.167 302.5,288.5C 302.167,288.5 301.833,288.5 301.5,288.5C 300.549,289.919 300.216,291.585 300.5,293.5C 298.602,294.096 296.935,294.096 295.5,293.5C 296.167,293.5 296.5,293.167 296.5,292.5C 297.833,292.5 298.5,291.833 298.5,290.5C 299.833,290.167 299.833,289.833 298.5,289.5C 298.5,288.167 297.833,287.5 296.5,287.5C 296.811,286.522 297.478,285.855 298.5,285.5C 299.86,286.18 301.193,286.847 302.5,287.5 Z"/></g>
<g><path style="opacity:0.004" fill="#fefffe" d="M 437.5,285.5 C 438.833,286.167 438.833,286.167 437.5,285.5 Z"/></g>
<g><path style="opacity:0.008" fill="#fefffe" d="M 470.5,288.5 C 468.735,287.539 466.735,287.205 464.5,287.5C 464.783,286.711 465.283,286.044 466,285.5C 467,286.833 468,286.833 469,285.5C 470.067,286.191 471.234,286.691 472.5,287C 471.956,287.717 471.289,288.217 470.5,288.5 Z"/></g>
<g><path style="opacity:0.231" fill="#c6c6c6" d="M 159.5,290.5 C 152.395,287.456 145.061,286.79 137.5,288.5C 143.7,285.867 150.033,285.867 156.5,288.5C 158.137,287.556 159.137,288.223 159.5,290.5 Z"/></g>
<g><path style="opacity:0.224" fill="#d1d0d1" d="M 181.5,287.5 C 187.491,285.822 193.325,286.488 199,289.5C 199.333,288.833 199.667,288.167 200,287.5C 200.232,288.737 200.732,289.737 201.5,290.5C 201.5,290.833 201.5,291.167 201.5,291.5C 195.288,288.083 188.622,286.75 181.5,287.5 Z"/></g>
<g><path style="opacity:0.243" fill="#c9c9c9" d="M 239.5,287.5 C 233.346,287.178 227.346,287.845 221.5,289.5C 222.126,288.471 222.959,287.471 224,286.5C 229.206,286.291 234.372,286.625 239.5,287.5 Z"/></g>
<g><path style="opacity:0.004" fill="#fefffe" d="M 416.5,286.5 C 417.833,287.167 417.833,287.167 416.5,286.5 Z"/></g>
<g><path style="opacity:0.008" fill="#fefffe" d="M 272.5,287.5 C 273.833,288.167 273.833,288.167 272.5,287.5 Z"/></g>
<g><path style="opacity:0.375" fill="#bdbcbd" d="M 296.5,287.5 C 297.833,287.5 298.5,288.167 298.5,289.5C 298.5,289.833 298.5,290.167 298.5,290.5C 298.167,290.5 297.833,290.5 297.5,290.5C 295.952,289.206 293.952,288.539 291.5,288.5C 288.514,288.289 285.847,288.956 283.5,290.5C 283.5,289.833 283.167,289.5 282.5,289.5C 283.765,288.521 285.099,287.521 286.5,286.5C 289.447,286.354 292.78,286.688 296.5,287.5 Z"/></g>
<g><path style="opacity:0.374" fill="#bdbbbc" d="M 331.5,290.5 C 322.29,288.686 312.957,288.02 303.5,288.5C 303.167,288.5 302.833,288.5 302.5,288.5C 302.5,288.167 302.5,287.833 302.5,287.5C 308.117,287.687 313.95,287.354 320,286.5C 323.487,287.239 326.987,288.073 330.5,289C 331.056,289.383 331.389,289.883 331.5,290.5 Z"/></g>
<g><path style="opacity:0.004" fill="#fefffe" d="M 351.5,288.5 C 350.833,287.167 350.833,287.167 351.5,288.5 Z"/></g>
<g><path style="opacity:0.125" fill="#cfcecf" d="M 357.5,287.5 C 363.789,285.895 369.789,286.895 375.5,290.5C 375.5,290.833 375.5,291.167 375.5,291.5C 372.296,290.099 368.963,289.099 365.5,288.5C 363.052,287.527 360.385,287.194 357.5,287.5 Z"/></g>
<g><path style="opacity:0.004" fill="#fefffe" d="M 419.5,287.5 C 420.833,288.167 420.833,288.167 419.5,287.5 Z"/></g>
<g><path style="opacity:0.013" fill="#e5e4e4" d="M 436.5,287.5 C 436.5,287.833 436.5,288.167 436.5,288.5C 436.5,301.833 436.5,315.167 436.5,328.5C 438.167,328.5 439.833,328.5 441.5,328.5C 441.833,328.5 442.167,328.5 442.5,328.5C 440.107,329.21 437.607,329.877 435,330.5C 434.826,325.316 434.326,320.316 433.5,315.5C 434.11,306.252 434.11,297.085 433.5,288C 434.448,287.517 435.448,287.351 436.5,287.5 Z"/></g>
<g><path style="opacity:0.009" fill="#fafafa" d="M 446.5,305.5 C 445.833,306.833 444.833,307.833 443.5,308.5C 443.334,301.492 443.5,294.492 444,287.5C 443.8,293.92 444.634,299.92 446.5,305.5 Z"/></g>
<g><path style="opacity:0.69" fill="#a19fa0" d="M 181.5,287.5 C 179.898,289.074 177.898,289.741 175.5,289.5C 175.369,288.761 175.536,288.094 176,287.5C 177.626,287.854 179.459,287.854 181.5,287.5 Z"/></g>
<g><path style="opacity:0.01" fill="#f0eff0" d="M 205.5,294.5 C 205.167,293.167 204.833,293.167 204.5,294.5C 203.167,293.833 202.167,292.833 201.5,291.5C 202.833,291.167 202.833,290.833 201.5,290.5C 201.369,289.624 201.702,288.957 202.5,288.5C 203.48,289.981 204.647,291.315 206,292.5C 206.692,293.437 206.525,294.103 205.5,294.5 Z"/></g>
<g><path style="opacity:0.004" fill="#fefffe" d="M 217.5,288.5 C 218.833,289.167 218.833,289.167 217.5,288.5 Z"/></g>
<g><path style="opacity:0.005" fill="#fefffe" d="M 257.5,288.5 C 257.657,289.873 257.49,291.207 257,292.5C 256.235,290.934 256.402,289.601 257.5,288.5 Z"/></g>
<g><path style="opacity:0.627" fill="#979596" d="M 357.5,287.5 C 360.385,287.194 363.052,287.527 365.5,288.5C 360.797,288.437 356.13,288.771 351.5,289.5C 351.5,289.167 351.5,288.833 351.5,288.5C 352.75,288.423 353.583,287.756 354,286.5C 355.011,287.337 356.178,287.67 357.5,287.5 Z"/></g>
<g><path style="opacity:0.012" fill="#fefffe" d="M 396.5,289.5 C 395.833,288.167 395.833,288.167 396.5,289.5 Z"/></g>
<g><path style="opacity:0.376" fill="#c1c0c0" d="M 137.5,288.5 C 136.486,289.674 135.153,290.34 133.5,290.5C 134.287,288.896 135.62,288.229 137.5,288.5 Z"/></g>
<g><path style="opacity:1" fill="#232021" d="M 239.5,287.5 C 244.285,289.736 248.618,292.736 252.5,296.5C 252.427,298.027 253.094,299.027 254.5,299.5C 255.254,304.463 255.587,309.463 255.5,314.5C 255.5,314.833 255.5,315.167 255.5,315.5C 253.75,316.659 252.75,318.326 252.5,320.5C 250.5,321.833 248.833,323.5 247.5,325.5C 244.296,326.901 240.963,327.901 237.5,328.5C 232.463,328.587 227.463,328.254 222.5,327.5C 222.027,326.094 221.027,325.427 219.5,325.5C 219.027,324.094 218.027,323.427 216.5,323.5C 210.516,314.527 210.016,305.194 215,295.5C 217.664,294.002 219.83,292.002 221.5,289.5C 227.346,287.845 233.346,287.178 239.5,287.5 Z M 231.5,297.5 C 233.451,297.227 234.951,297.893 236,299.5C 236.671,298.748 237.504,298.414 238.5,298.5C 238.5,298.833 238.5,299.167 238.5,299.5C 238.062,299.435 237.728,299.601 237.5,300C 238.701,300.903 239.535,302.069 240,303.5C 240.464,302.906 240.631,302.239 240.5,301.5C 242.017,303.462 242.684,305.795 242.5,308.5C 242.684,311.205 242.017,313.538 240.5,315.5C 240.141,313.169 239.474,313.335 238.5,316C 238.728,316.399 239.062,316.565 239.5,316.5C 239.082,317.222 238.416,317.722 237.5,318C 234.518,318.498 231.518,318.665 228.5,318.5C 228.5,318.167 228.5,317.833 228.5,317.5C 227.123,316.444 226.29,315.111 226,313.5C 225.617,314.056 225.117,314.389 224.5,314.5C 224.5,313.833 224.5,313.167 224.5,312.5C 225.833,311.5 225.833,310.5 224.5,309.5C 224.5,308.833 224.5,308.167 224.5,307.5C 225.434,306.432 225.768,305.099 225.5,303.5C 226.5,303.167 227.167,302.5 227.5,301.5C 228.167,301.5 228.5,301.167 228.5,300.5C 230.308,300.509 231.975,300.009 233.5,299C 232.584,298.722 231.918,298.222 231.5,297.5 Z M 226.5,299.5 C 227.167,299.5 227.833,299.5 228.5,299.5C 228.5,299.833 228.5,300.167 228.5,300.5C 227.833,300.5 227.5,300.833 227.5,301.5C 226.508,301.672 225.842,301.338 225.5,300.5C 226.167,300.5 226.5,300.167 226.5,299.5 Z"/></g>
<g><path style="opacity:0.012" fill="#d1d1d1" d="M 351.5,289.5 C 349.393,291.727 347.06,293.727 344.5,295.5C 345.045,293.407 345.878,291.407 347,289.5C 347.333,290.167 347.667,290.833 348,291.5C 348.816,290.177 349.983,289.511 351.5,289.5 Z"/></g>
<g><path style="opacity:0.008" fill="#fefffe" d="M 375.5,289.5 C 376.833,290.167 376.833,290.167 375.5,289.5 Z"/></g>
<g><path style="opacity:0.267" fill="#ababab" d="M 416.5,287.5 C 417.965,288.737 419.632,289.737 421.5,290.5C 421.5,290.833 421.5,291.167 421.5,291.5C 413.308,287.947 404.975,287.614 396.5,290.5C 396.5,290.167 396.5,289.833 396.5,289.5C 402.895,286.419 409.562,285.753 416.5,287.5 Z"/></g>
<g><path style="opacity:0.008" fill="#fefffe" d="M 421.5,290.5 C 422.386,289.224 423.386,289.224 424.5,290.5C 424.376,291.107 424.043,291.44 423.5,291.5C 423.158,290.662 422.492,290.328 421.5,290.5 Z"/></g>
<g><path style="opacity:0.005" fill="#fefffe" d="M 470.5,289.5 C 472.933,289.786 472.933,290.452 470.5,291.5C 470.5,290.833 470.5,290.167 470.5,289.5 Z"/></g>
<g><path style="opacity:0.008" fill="#d8d7d7" d="M 133.5,290.5 C 131.833,292.833 129.833,294.833 127.5,296.5C 126.697,295.577 126.53,294.577 127,293.5C 127.333,293.833 127.667,294.167 128,294.5C 128.667,293.167 129.333,291.833 130,290.5C 130.986,291.171 132.153,291.171 133.5,290.5 Z"/></g>
<g><path style="opacity:0.49" fill="#bbbbbb" d="M 175.5,289.5 C 174.421,291.543 172.754,292.876 170.5,293.5C 170.238,292.022 170.571,290.689 171.5,289.5C 172.726,290.363 174.06,290.363 175.5,289.5 Z"/></g>
<g><path style="opacity:0.004" fill="#fefffe" d="M 249.5,290.5 C 250.833,291.167 250.833,291.167 249.5,290.5 Z"/></g>
<g><path style="opacity:0.008" fill="#eaeaea" d="M 331.5,290.5 C 332.833,290.5 333.5,291.167 333.5,292.5C 332.5,292.167 331.833,291.5 331.5,290.5 Z"/></g>
<g><path style="opacity:0.008" fill="#eaeaea" d="M 379.5,293.5 C 378.833,293.5 378.5,293.833 378.5,294.5C 377.5,294.167 376.833,293.5 376.5,292.5C 377.831,289.951 378.831,290.284 379.5,293.5 Z"/></g>
<g><path style="opacity:1" fill="#292728" d="M 159.5,290.5 C 159.973,291.906 160.973,292.573 162.5,292.5C 162.414,293.496 162.748,294.329 163.5,295C 161.627,296.704 159.96,298.537 158.5,300.5C 157.5,300.5 156.5,300.5 155.5,300.5C 155.027,299.094 154.027,298.427 152.5,298.5C 148.833,297.167 145.167,297.167 141.5,298.5C 139.121,297.433 138.121,298.433 138.5,301.5C 135.697,304.204 134.863,307.537 136,311.5C 136.697,313.584 137.864,315.251 139.5,316.5C 139.577,317.75 140.244,318.583 141.5,319C 145.027,319.808 148.36,319.641 151.5,318.5C 153.903,318.607 155.736,317.607 157,315.5C 158.039,316.71 159.206,317.71 160.5,318.5C 161.29,319.794 162.29,320.961 163.5,322C 162.619,322.708 161.953,323.542 161.5,324.5C 161.5,325.167 161.167,325.5 160.5,325.5C 157.256,326.463 154.256,327.796 151.5,329.5C 148.167,330.833 144.833,330.833 141.5,329.5C 139.898,327.926 137.898,327.259 135.5,327.5C 135.027,326.094 134.027,325.427 132.5,325.5C 131.5,323.833 130.167,322.5 128.5,321.5C 127.833,321.167 127.167,320.833 126.5,320.5C 126.5,319.833 126.5,319.167 126.5,318.5C 125.976,316.694 125.309,315.028 124.5,313.5C 123.274,309.633 123.274,305.633 124.5,301.5C 125.338,301.158 125.672,300.492 125.5,299.5C 126.906,299.027 127.573,298.027 127.5,296.5C 129.833,294.833 131.833,292.833 133.5,290.5C 135.153,290.34 136.486,289.674 137.5,288.5C 145.061,286.79 152.395,287.456 159.5,290.5 Z"/></g>
<g><path style="opacity:0.086" fill="#dedede" d="M 159.5,290.5 C 161.179,290.285 162.179,290.952 162.5,292.5C 160.973,292.573 159.973,291.906 159.5,290.5 Z"/></g>
<g><path style="opacity:0.013" fill="#fefffe" d="M 169.5,293.5 C 168.833,293.5 168.5,293.833 168.5,294.5C 167.833,294.167 167.167,293.833 166.5,293.5C 168.043,291.443 169.043,291.443 169.5,293.5 Z"/></g>
<g><path style="opacity:0.071" fill="#c0bfbf" d="M 239.5,287.5 C 243.725,287.992 247.059,289.326 249.5,291.5C 250.925,292.922 251.925,294.589 252.5,296.5C 248.618,292.736 244.285,289.736 239.5,287.5 Z"/></g>
<g><path style="opacity:0.035" fill="#d3d3d3" d="M 421.5,291.5 C 422.167,291.5 422.833,291.5 423.5,291.5C 424.008,293.233 424.841,293.566 426,292.5C 427.039,293.244 427.539,294.244 427.5,295.5C 426.833,295.5 426.5,295.833 426.5,296.5C 424.5,295.167 422.833,293.5 421.5,291.5 Z"/></g>
<g><path style="opacity:0.004" fill="#fefffe" d="M 427.5,291.5 C 428.833,292.167 428.833,292.167 427.5,291.5 Z"/></g>
<g><path style="opacity:0.004" fill="#fefffe" d="M 432.5,291.5 C 433.833,292.167 433.833,292.167 432.5,291.5 Z"/></g>
<g><path style="opacity:0.008" fill="#fefffe" d="M 469.5,291.5 C 469.833,291.5 470.167,291.5 470.5,291.5C 470.315,292.17 469.981,292.17 469.5,291.5 Z"/></g>
<g><path style="opacity:0.361" fill="#cacaca" d="M 464.5,287.5 C 466.735,287.205 468.735,287.539 470.5,288.5C 470.5,288.833 470.5,289.167 470.5,289.5C 470.167,289.5 469.833,289.5 469.5,289.5C 467.712,288.378 465.712,288.211 463.5,289C 458.298,294.37 452.965,299.536 447.5,304.5C 447.511,302.983 448.177,301.816 449.5,301C 449.167,300.667 448.833,300.333 448.5,300C 453.764,296.294 459.098,292.127 464.5,287.5 Z"/></g>
<g><path style="opacity:0.009" fill="#e3e2e3" d="M 221.5,289.5 C 219.83,292.002 217.664,294.002 215,295.5C 210.016,305.194 210.516,314.527 216.5,323.5C 215.833,323.5 215.5,323.833 215.5,324.5C 213.408,321.319 211.075,318.319 208.5,315.5C 208.366,313.708 208.699,312.042 209.5,310.5C 210.833,310.167 210.833,309.833 209.5,309.5C 209.5,308.167 209.5,306.833 209.5,305.5C 210.833,304.5 210.833,303.5 209.5,302.5C 208.662,302.158 208.328,301.492 208.5,300.5C 209.833,299.833 209.833,299.167 208.5,298.5C 208.5,298.167 208.5,297.833 208.5,297.5C 211.55,296.241 214.05,294.241 216,291.5C 217.943,291.959 219.276,290.959 220,288.5C 220.383,289.056 220.883,289.389 221.5,289.5 Z"/></g>
<g><path style="opacity:0.851" fill="#3f3e3f" d="M 302.5,288.5 C 302.833,288.5 303.167,288.5 303.5,288.5C 303.5,301.5 303.5,314.5 303.5,327.5C 312.833,327.5 322.167,327.5 331.5,327.5C 330.432,328.434 329.099,328.768 327.5,328.5C 319.167,328.5 310.833,328.5 302.5,328.5C 302.5,315.167 302.5,301.833 302.5,288.5 Z"/></g>
<g><path style="opacity:0.773" fill="#818181" d="M 396.5,290.5 C 394.5,293.167 392.167,295.5 389.5,297.5C 389.5,297.167 389.5,296.833 389.5,296.5C 391.239,293.757 393.573,291.757 396.5,290.5 Z"/></g>
<g><path style="opacity:0.039" fill="#cccccc" d="M 469.5,289.5 C 469.5,290.167 469.5,290.833 469.5,291.5C 468.167,292.167 467.167,293.167 466.5,294.5C 465.5,294.833 464.833,295.5 464.5,296.5C 464.167,296.5 463.833,296.5 463.5,296.5C 464.757,293.573 466.757,291.239 469.5,289.5 Z"/></g>
<g><path style="opacity:0.008" fill="#fefffe" d="M 466.5,294.5 C 467.833,295.167 467.833,295.167 466.5,294.5 Z"/></g>
<g><path style="opacity:0.016" fill="#f1f0f0" d="M 208.5,297.5 C 207.833,297.5 207.5,297.833 207.5,298.5C 206.662,298.158 206.328,297.492 206.5,296.5C 207.925,294.969 208.591,295.302 208.5,297.5 Z"/></g>
<g><path style="opacity:0.009" fill="#dbdbdb" d="M 293.5,294.5 C 293.414,295.496 293.748,296.329 294.5,297C 291.985,297.578 289.652,299.078 287.5,301.5C 287.5,300.833 287.5,300.167 287.5,299.5C 289.5,297.833 291.5,296.167 293.5,294.5 Z"/></g>
<g><path style="opacity:0.011" fill="#e6e5e6" d="M 333.5,292.5 C 334.966,293.347 335.8,294.68 336,296.5C 337.159,295.434 337.992,295.767 338.5,297.5C 335.833,298.167 335.833,298.833 338.5,299.5C 338.5,300.167 338.833,300.5 339.5,300.5C 339.5,301.833 339.5,303.167 339.5,304.5C 338.093,301.961 336.927,302.294 336,305.5C 334.993,303.258 334.159,303.592 333.5,306.5C 332.662,306.842 332.328,307.508 332.5,308.5C 331.624,308.631 330.957,308.298 330.5,307.5C 334.505,303.149 335.505,298.149 333.5,292.5 Z"/></g>
<g><path style="opacity:0.012" fill="#f4f4f4" d="M 389.5,296.5 C 389.5,296.833 389.5,297.167 389.5,297.5C 389.5,298.167 389.167,298.5 388.5,298.5C 386.989,296.162 387.323,295.496 389.5,296.5 Z"/></g>
<g><path style="opacity:0.008" fill="#f8f8f8" d="M 427.5,295.5 C 428.586,295.62 429.253,296.287 429.5,297.5C 429.457,298.416 429.124,299.083 428.5,299.5C 427.833,299.5 427.5,299.167 427.5,298.5C 428.833,298.167 428.833,297.833 427.5,297.5C 426.833,297.5 426.5,297.167 426.5,296.5C 427.167,296.5 427.5,296.167 427.5,295.5 Z"/></g>
<g><path style="opacity:0.997" fill="#4e4e4e" d="M 463.5,296.5 C 463.5,296.833 463.5,297.167 463.5,297.5C 462.167,298.167 461.167,299.167 460.5,300.5C 459.833,300.5 459.5,300.833 459.5,301.5C 458.5,301.833 457.833,302.5 457.5,303.5C 457.167,303.5 456.833,303.5 456.5,303.5C 456.714,301.856 456.38,300.356 455.5,299C 457,298.167 458.167,297 459,295.5C 460.356,296.38 461.856,296.714 463.5,296.5 Z"/></g>
<g><path style="opacity:0.013" fill="#dedede" d="M 127.5,296.5 C 127.573,298.027 126.906,299.027 125.5,299.5C 125.5,298.833 125.167,298.5 124.5,298.5C 124.369,297.761 124.536,297.094 125,296.5C 125.77,297.598 126.603,297.598 127.5,296.5 Z"/></g>
<g><path style="opacity:0.012" fill="#ececec" d="M 162.5,292.5 C 163.705,294.138 165.038,294.471 166.5,293.5C 166.263,294.791 166.596,295.791 167.5,296.5C 167.672,297.492 167.338,298.158 166.5,298.5C 166.672,299.492 166.338,300.158 165.5,300.5C 165.672,301.492 165.338,302.158 164.5,302.5C 163.778,302.918 163.278,303.584 163,304.5C 162.667,303.167 162.333,301.833 162,300.5C 161.076,302.495 159.91,302.828 158.5,301.5C 159.833,301.167 159.833,300.833 158.5,300.5C 159.96,298.537 161.627,296.704 163.5,295C 162.748,294.329 162.414,293.496 162.5,292.5 Z"/></g>
<g><path style="opacity:0.435" fill="#908e8f" d="M 229.5,297.5 C 230.622,296.844 231.955,296.511 233.5,296.5C 235.883,296.361 237.883,297.028 239.5,298.5C 239.167,298.5 238.833,298.5 238.5,298.5C 237.504,298.414 236.671,298.748 236,299.5C 234.951,297.893 233.451,297.227 231.5,297.5C 230.833,297.5 230.167,297.5 229.5,297.5 Z"/></g>
<g><path style="opacity:0.009" fill="#d4d4d4" d="M 252.5,296.5 C 255.331,296.134 256.997,297.634 257.5,301C 256.272,305.193 256.272,309.36 257.5,313.5C 257.043,314.298 256.376,314.631 255.5,314.5C 255.587,309.463 255.254,304.463 254.5,299.5C 253.094,299.027 252.427,298.027 252.5,296.5 Z"/></g>
<g><path style="opacity:0.006" fill="#fefffe" d="M 385.5,298.5 C 385.369,297.761 385.536,297.094 386,296.5C 386.692,297.437 386.525,298.103 385.5,298.5 Z"/></g>
<g><path style="opacity:0.562" fill="#858484" d="M 443.5,308.5 C 443.631,309.376 443.298,310.043 442.5,310.5C 441.503,303.197 441.169,295.863 441.5,288.5C 439.833,288.5 438.167,288.5 436.5,288.5C 436.5,288.167 436.5,287.833 436.5,287.5C 438.541,287.146 440.374,287.146 442,287.5C 442.171,294.679 442.671,301.679 443.5,308.5 Z"/></g>
<g><path style="opacity:0.004" fill="#fefffe" d="M 464.5,296.5 C 465.833,297.167 465.833,297.167 464.5,296.5 Z"/></g>
<g><path style="opacity:0.965" fill="#666465" d="M 141.5,298.5 C 140.833,299.833 139.833,300.833 138.5,301.5C 138.121,298.433 139.121,297.433 141.5,298.5 Z"/></g>
<g><path style="opacity:0.014" fill="#ececec" d="M 229.5,297.5 C 230.167,297.5 230.833,297.5 231.5,297.5C 231.918,298.222 232.584,298.722 233.5,299C 231.975,300.009 230.308,300.509 228.5,300.5C 228.5,300.167 228.5,299.833 228.5,299.5C 227.833,299.5 227.167,299.5 226.5,299.5C 226.973,298.094 227.973,297.427 229.5,297.5 Z"/></g>
<g><path style="opacity:0.012" fill="#fefffe" d="M 338.5,297.5 C 339.167,297.5 339.833,297.5 340.5,297.5C 340.5,298.5 340.5,299.5 340.5,300.5C 340.167,300.5 339.833,300.5 339.5,300.5C 338.833,300.5 338.5,300.167 338.5,299.5C 338.5,298.833 338.5,298.167 338.5,297.5 Z"/></g>
<g><path style="opacity:0.012" fill="#fefffe" d="M 463.5,297.5 C 463.833,297.5 464.167,297.5 464.5,297.5C 464.315,298.17 463.981,298.17 463.5,297.5 Z"/></g>
<g><path style="opacity:0.007" fill="#f9f9f9" d="M 124.5,298.5 C 125.167,298.5 125.5,298.833 125.5,299.5C 125.672,300.492 125.338,301.158 124.5,301.5C 123.375,300.348 123.375,299.348 124.5,298.5 Z"/></g>
<g><path style="opacity:0.184" fill="#c5c3c4" d="M 272.5,302.5 C 272.631,303.376 272.298,304.043 271.5,304.5C 270.505,299.208 270.172,293.875 270.5,288.5C 266.833,288.5 263.167,288.5 259.5,288.5C 259.5,301.833 259.5,315.167 259.5,328.5C 263.167,328.5 266.833,328.5 270.5,328.5C 270.187,324.958 270.521,321.625 271.5,318.5C 271.5,322.167 271.5,325.833 271.5,329.5C 267.233,329.203 263.066,329.536 259,330.5C 258.831,316.327 258.331,302.327 257.5,288.5C 257.783,287.711 258.283,287.044 259,286.5C 262.802,287.806 266.635,287.806 270.5,286.5C 271.167,291.985 271.833,297.319 272.5,302.5 Z"/></g>
<g><path style="opacity:0.016" fill="#f3f2f3" d="M 379.5,293.5 C 382.562,295.623 384.062,298.623 384,302.5C 384.21,300.942 384.71,299.609 385.5,298.5C 386.348,299.625 387.348,299.625 388.5,298.5C 388.204,300.403 387.537,302.07 386.5,303.5C 385.248,302.551 385.248,303.551 386.5,306.5C 386.5,307.833 386.5,309.167 386.5,310.5C 385.659,312.812 384.659,315.145 383.5,317.5C 382.347,319.636 381.014,321.636 379.5,323.5C 379.5,322.833 379.167,322.5 378.5,322.5C 385.079,313.136 385.079,303.803 378.5,294.5C 379.167,294.5 379.5,294.167 379.5,293.5 Z"/></g>
<g><path style="opacity:0.013" fill="#d9d8d8" d="M 152.5,298.5 C 154.027,298.427 155.027,299.094 155.5,300.5C 154.778,300.918 154.278,301.584 154,302.5C 153.079,301.292 152.579,299.958 152.5,298.5 Z"/></g>
<g><path style="opacity:0.424" fill="#b8b6b6" d="M 343.5,296.5 C 343.771,298.38 343.104,299.713 341.5,300.5C 341.414,299.504 341.748,298.671 342.5,298C 341.906,297.536 341.239,297.369 340.5,297.5C 341.105,295.519 342.105,295.185 343.5,296.5 Z"/></g>
<g><path style="opacity:0.008" fill="#fefffe" d="M 460.5,300.5 C 461.833,301.167 461.833,301.167 460.5,300.5 Z"/></g>
<g><path style="opacity:0.075" fill="#c6c5c6" d="M 155.5,300.5 C 156.5,300.5 157.5,300.5 158.5,300.5C 158.5,300.833 158.5,301.167 158.5,301.5C 156.804,303.129 155.804,302.796 155.5,300.5 Z"/></g>
<g><path style="opacity:0.011" fill="#eeeeee" d="M 225.5,300.5 C 225.842,301.338 226.508,301.672 227.5,301.5C 227.167,302.5 226.5,303.167 225.5,303.5C 225.5,302.833 225.167,302.5 224.5,302.5C 224.328,301.508 224.662,300.842 225.5,300.5 Z"/></g>
<g><path style="opacity:0.012" fill="#fefffe" d="M 431.5,303.5 C 430.475,303.103 430.308,302.437 431,301.5C 431.464,302.094 431.631,302.761 431.5,303.5 Z"/></g>
<g><path style="opacity:0.012" fill="#fefffe" d="M 459.5,301.5 C 459.833,301.5 460.167,301.5 460.5,301.5C 460.315,302.17 459.981,302.17 459.5,301.5 Z"/></g>
<g><path style="opacity:1" fill="#242223" d="M 272.5,302.5 C 273.833,301.833 274.833,300.833 275.5,299.5C 278.881,297.12 281.547,294.12 283.5,290.5C 285.847,288.956 288.514,288.289 291.5,288.5C 293.952,288.539 295.952,289.206 297.5,290.5C 297.167,291.167 296.833,291.833 296.5,292.5C 295.833,292.5 295.5,292.833 295.5,293.5C 294.833,293.833 294.167,294.167 293.5,294.5C 291.5,296.167 289.5,297.833 287.5,299.5C 285.952,299.821 285.285,300.821 285.5,302.5C 284.127,302.343 282.793,302.51 281.5,303C 282.756,303.417 283.423,304.25 283.5,305.5C 282.527,307.292 283.194,308.625 285.5,309.5C 285.738,311.404 286.738,312.738 288.5,313.5C 289.08,315.749 290.413,317.415 292.5,318.5C 293.08,320.749 294.413,322.415 296.5,323.5C 296.738,325.404 297.738,326.738 299.5,327.5C 295.354,328.647 291.02,328.814 286.5,328C 285.627,326.955 284.627,326.122 283.5,325.5C 282.92,323.251 281.587,321.585 279.5,320.5C 278.92,318.251 277.587,316.585 275.5,315.5C 273.275,314.668 271.942,315.668 271.5,318.5C 270.521,321.625 270.187,324.958 270.5,328.5C 266.833,328.5 263.167,328.5 259.5,328.5C 259.5,315.167 259.5,301.833 259.5,288.5C 263.167,288.5 266.833,288.5 270.5,288.5C 270.172,293.875 270.505,299.208 271.5,304.5C 272.298,304.043 272.631,303.376 272.5,302.5 Z"/></g>
<g><path style="opacity:0.392" fill="#b8b6b7" d="M 282.5,289.5 C 283.167,289.5 283.5,289.833 283.5,290.5C 281.547,294.12 278.881,297.12 275.5,299.5C 275.5,299.167 275.5,298.833 275.5,298.5C 275.5,298.167 275.5,297.833 275.5,297.5C 276.5,297.167 277.167,296.5 277.5,295.5C 278.5,295.167 279.167,294.5 279.5,293.5C 280.167,293.5 280.5,293.167 280.5,292.5C 281.833,292.167 281.833,291.833 280.5,291.5C 280.833,290.5 281.5,289.833 282.5,289.5 Z"/></g>
<g><path style="opacity:0.004" fill="#fefffe" d="M 277.5,295.5 C 276.833,294.167 276.833,294.167 277.5,295.5 Z"/></g>
<g><path style="opacity:0.012" fill="#fefffe" d="M 280.5,291.5 C 280.5,291.833 280.5,292.167 280.5,292.5C 279.833,292.5 279.5,292.833 279.5,293.5C 278.243,292.377 278.576,291.711 280.5,291.5 Z"/></g>
<g><path style="opacity:0.012" fill="#f5f5f5" d="M 275.5,297.5 C 274.167,297.833 274.167,298.167 275.5,298.5C 275.5,298.833 275.5,299.167 275.5,299.5C 274.833,300.833 273.833,301.833 272.5,302.5C 272.408,298.298 272.742,293.965 273.5,289.5C 274.392,291.146 274.392,293.146 273.5,295.5C 274.243,296.182 274.909,296.849 275.5,297.5 Z"/></g>
<g><path style="opacity:1" fill="#5a5657" d="M 287.5,299.5 C 287.5,300.167 287.5,300.833 287.5,301.5C 286.5,303.167 285.167,304.5 283.5,305.5C 283.423,304.25 282.756,303.417 281.5,303C 282.793,302.51 284.127,302.343 285.5,302.5C 285.285,300.821 285.952,299.821 287.5,299.5 Z"/></g>
<g><path style="opacity:0.009" fill="#fefffe" d="M 431.5,303.5 C 433.582,306.532 433.748,309.866 432,313.5C 431.502,310.183 431.335,306.85 431.5,303.5 Z"/></g>
<g><path style="opacity:0.008" fill="#fefffe" d="M 457.5,303.5 C 458.833,304.167 458.833,304.167 457.5,303.5 Z"/></g>
<g><path style="opacity:0.026" fill="#cfcece" d="M 238.5,299.5 C 238.5,299.167 238.5,298.833 238.5,298.5C 238.833,298.5 239.167,298.5 239.5,298.5C 245.122,303.689 245.956,309.689 242,316.5C 241.097,317.701 239.931,318.535 238.5,319C 234.973,319.808 231.64,319.641 228.5,318.5C 231.518,318.665 234.518,318.498 237.5,318C 238.416,317.722 239.082,317.222 239.5,316.5C 240.167,316.5 240.5,316.167 240.5,315.5C 242.017,313.538 242.684,311.205 242.5,308.5C 242.684,305.795 242.017,303.462 240.5,301.5C 240.167,300.5 239.5,299.833 238.5,299.5 Z"/></g>
<g><path style="opacity:0.01" fill="#e5e5e5" d="M 454.5,305.5 C 454.833,306.833 455.167,306.833 455.5,305.5C 456.376,305.369 457.043,305.702 457.5,306.5C 456.757,307.182 456.091,307.849 455.5,308.5C 453.618,307.779 453.285,306.779 454.5,305.5 Z"/></g>
<g><path style="opacity:0.007" fill="#fefffe" d="M 333.5,306.5 C 334.833,306.5 335.5,307.167 335.5,308.5C 335.167,308.5 334.833,308.5 334.5,308.5C 334.167,307.833 333.833,307.167 333.5,306.5 Z"/></g>
<g><path style="opacity:1" fill="#292728" d="M 421.5,291.5 C 422.833,293.5 424.5,295.167 426.5,296.5C 426.5,297.167 426.833,297.5 427.5,297.5C 427.5,297.833 427.5,298.167 427.5,298.5C 427.5,299.167 427.833,299.5 428.5,299.5C 430.568,304.38 430.901,309.38 429.5,314.5C 428.662,314.842 428.328,315.508 428.5,316.5C 427.662,316.842 427.328,317.508 427.5,318.5C 426.662,318.842 426.328,319.508 426.5,320.5C 426.5,320.833 426.5,321.167 426.5,321.5C 426.167,321.5 425.833,321.5 425.5,321.5C 424.167,322.167 423.167,323.167 422.5,324.5C 422.5,324.833 422.5,325.167 422.5,325.5C 422.167,325.5 421.833,325.5 421.5,325.5C 419.847,325.66 418.514,326.326 417.5,327.5C 411.159,328.779 404.826,328.779 398.5,327.5C 397.833,327.5 397.167,327.5 396.5,327.5C 396.5,327.167 396.5,326.833 396.5,326.5C 395.415,324.413 393.749,323.08 391.5,322.5C 391.573,320.973 390.906,319.973 389.5,319.5C 389.34,317.847 388.674,316.514 387.5,315.5C 386.549,314.081 386.216,312.415 386.5,310.5C 386.5,309.167 386.5,307.833 386.5,306.5C 386.5,305.5 386.5,304.5 386.5,303.5C 387.537,302.07 388.204,300.403 388.5,298.5C 389.167,298.5 389.5,298.167 389.5,297.5C 392.167,295.5 394.5,293.167 396.5,290.5C 404.975,287.614 413.308,287.947 421.5,291.5 Z M 416.5,296.5 C 417.167,297.167 417.833,297.833 418.5,298.5C 418.409,300.698 419.075,301.031 420.5,299.5C 420.936,301.746 421.603,303.913 422.5,306C 422.258,309.422 421.592,312.589 420.5,315.5C 420.5,316.167 420.5,316.833 420.5,317.5C 419.833,317.833 419.167,318.167 418.5,318.5C 417.922,317.453 417.256,317.62 416.5,319C 416.728,319.399 417.062,319.565 417.5,319.5C 416.486,320.674 415.153,321.34 413.5,321.5C 413.5,321.833 413.5,322.167 413.5,322.5C 409.818,322.665 406.152,322.499 402.5,322C 401.584,321.722 400.918,321.222 400.5,320.5C 399.833,320.5 399.167,320.5 398.5,320.5C 398.5,320.167 398.5,319.833 398.5,319.5C 399.043,319.44 399.376,319.107 399.5,318.5C 398.743,317.227 398.077,317.227 397.5,318.5C 397.167,318.5 396.833,318.5 396.5,318.5C 396.715,316.821 396.048,315.821 394.5,315.5C 394.833,314.833 395.167,314.167 395.5,313.5C 394.833,313.5 394.167,313.5 393.5,313.5C 393.5,313.167 393.5,312.833 393.5,312.5C 393.875,309.123 394.208,305.456 394.5,301.5C 396.368,302.674 397.368,302.007 397.5,299.5C 398.5,299.167 399.167,298.5 399.5,297.5C 400.492,297.672 401.158,297.338 401.5,296.5C 402.833,296.167 402.833,295.833 401.5,295.5C 401.5,295.167 401.5,294.833 401.5,294.5C 402.822,294.33 403.989,294.663 405,295.5C 405.674,294.422 406.674,293.755 408,293.5C 410.185,293.921 412.351,294.421 414.5,295C 413.396,296.131 413.729,296.965 415.5,297.5C 416.107,297.376 416.44,297.043 416.5,296.5 Z"/></g>
<g><path style="opacity:0.059" fill="#e7e7e7" d="M 420.5,299.5 C 421.79,300.058 422.623,301.058 423,302.5C 423.667,306.167 423.667,309.833 423,313.5C 422.8,315.32 421.966,316.653 420.5,317.5C 420.5,316.833 420.5,316.167 420.5,315.5C 421.592,312.589 422.258,309.422 422.5,306C 421.603,303.913 420.936,301.746 420.5,299.5 Z"/></g>
<g><path style="opacity:0.018" fill="#f0f0f0" d="M 395.5,299.5 C 395.833,300.833 396.167,300.833 396.5,299.5C 396.833,299.5 397.167,299.5 397.5,299.5C 397.368,302.007 396.368,302.674 394.5,301.5C 394.328,300.508 394.662,299.842 395.5,299.5 Z"/></g>
<g><path style="opacity:0.024" fill="#e6e6e6" d="M 419.5,297.5 C 420.338,297.842 420.672,298.508 420.5,299.5C 419.075,301.031 418.409,300.698 418.5,298.5C 419.167,298.5 419.5,298.167 419.5,297.5 Z"/></g>
<g><path style="opacity:0.016" fill="#e1e0e0" d="M 401.5,294.5 C 401.5,294.833 401.5,295.167 401.5,295.5C 400.167,295.833 400.167,296.167 401.5,296.5C 401.158,297.338 400.492,297.672 399.5,297.5C 399.5,296.833 399.167,296.5 398.5,296.5C 398.973,295.094 399.973,294.427 401.5,294.5 Z"/></g>
<g><path style="opacity:0.439" fill="#b1b0b0" d="M 419.5,297.5 C 418.833,297.5 418.5,297.833 418.5,298.5C 417.833,297.833 417.167,297.167 416.5,296.5C 416.44,297.043 416.107,297.376 415.5,297.5C 413.729,296.965 413.396,296.131 414.5,295C 412.351,294.421 410.185,293.921 408,293.5C 406.674,293.755 405.674,294.422 405,295.5C 403.989,294.663 402.822,294.33 401.5,294.5C 406.757,291.925 412.09,292.092 417.5,295C 418.381,295.708 419.047,296.542 419.5,297.5 Z"/></g>
<g><path style="opacity:0.129" fill="#dadada" d="M 394.5,301.5 C 394.208,305.456 393.875,309.123 393.5,312.5C 392.842,311.207 392.508,309.707 392.5,308C 392.336,305.456 393.003,303.29 394.5,301.5 Z"/></g>
<g><path style="opacity:0.133" fill="#dfdddf" d="M 224.5,302.5 C 225.167,302.5 225.5,302.833 225.5,303.5C 225.768,305.099 225.434,306.432 224.5,307.5C 224.5,308.167 224.5,308.833 224.5,309.5C 223.662,309.842 223.328,310.508 223.5,311.5C 222.167,309.167 222.167,306.833 223.5,304.5C 223.328,303.508 223.662,302.842 224.5,302.5 Z"/></g>
<g><path style="opacity:0.451" fill="#aaa8a9" d="M 283.5,305.5 C 284.6,306.605 285.267,307.938 285.5,309.5C 283.194,308.625 282.527,307.292 283.5,305.5 Z"/></g>
<g><path style="opacity:1" fill="#272526" d="M 365.5,288.5 C 368.963,289.099 372.296,290.099 375.5,291.5C 376.167,291.5 376.5,291.833 376.5,292.5C 376.833,293.5 377.5,294.167 378.5,294.5C 385.079,303.803 385.079,313.136 378.5,322.5C 378.5,322.833 378.5,323.167 378.5,323.5C 377.833,323.833 377.167,324.167 376.5,324.5C 374.973,324.427 373.973,325.094 373.5,326.5C 373.158,327.338 372.492,327.672 371.5,327.5C 364.388,328.99 357.388,328.656 350.5,326.5C 349.415,324.413 347.749,323.08 345.5,322.5C 344.587,320.914 344.587,319.414 345.5,318C 343.341,316.036 343.674,314.203 346.5,312.5C 347.443,315.4 349.11,317.733 351.5,319.5C 352.122,321.335 353.456,322.502 355.5,323C 359.689,323.812 363.689,323.645 367.5,322.5C 367.842,321.662 368.508,321.328 369.5,321.5C 370.492,321.672 371.158,321.338 371.5,320.5C 374.297,320.033 375.631,318.367 375.5,315.5C 375.5,314.833 375.5,314.167 375.5,313.5C 375.833,313.5 376.167,313.5 376.5,313.5C 377.833,309.833 377.833,306.167 376.5,302.5C 376.5,301.833 376.167,301.5 375.5,301.5C 375.167,300.833 374.833,300.167 374.5,299.5C 374.167,297.167 372.833,295.833 370.5,295.5C 369.319,293.933 367.653,293.099 365.5,293C 363.288,292.211 361.288,292.378 359.5,293.5C 357.698,294.458 355.698,295.125 353.5,295.5C 352.167,295.5 351.5,296.167 351.5,297.5C 348.346,299.124 346.679,301.791 346.5,305.5C 345.691,307.292 345.191,309.292 345,311.5C 344.692,310.692 344.192,310.025 343.5,309.5C 342.719,310.729 342.219,312.062 342,313.5C 341.501,309.179 341.334,304.846 341.5,300.5C 343.104,299.713 343.771,298.38 343.5,296.5C 343.5,295.833 343.833,295.5 344.5,295.5C 347.06,293.727 349.393,291.727 351.5,289.5C 356.13,288.771 360.797,288.437 365.5,288.5 Z M 359.5,293.5 C 362.781,293.42 365.781,294.087 368.5,295.5C 367.761,295.369 367.094,295.536 366.5,296C 367.946,297.298 369.279,297.465 370.5,296.5C 371.833,297.167 372.833,298.167 373.5,299.5C 372.561,300.327 372.895,300.994 374.5,301.5C 374.141,303.766 374.808,305.599 376.5,307C 375.395,309.12 375.395,311.287 376.5,313.5C 376.167,313.5 375.833,313.5 375.5,313.5C 375.5,314.167 375.5,314.833 375.5,315.5C 373.493,314.321 373.16,314.821 374.5,317C 373.956,317.717 373.289,318.217 372.5,318.5C 372.167,319.167 371.833,319.833 371.5,320.5C 370.075,318.969 369.409,319.302 369.5,321.5C 368.508,321.328 367.842,321.662 367.5,322.5C 363.818,322.665 360.152,322.499 356.5,322C 355.584,321.722 354.918,321.222 354.5,320.5C 353.391,320.443 352.391,320.11 351.5,319.5C 350.412,317.417 349.412,315.251 348.5,313C 348.091,310.156 348.091,307.322 348.5,304.5C 349.767,301.932 350.767,299.598 351.5,297.5C 352.167,297.167 352.833,296.833 353.5,296.5C 353.5,296.167 353.5,295.833 353.5,295.5C 355.698,295.125 357.698,294.458 359.5,293.5 Z"/></g>
<g><path style="opacity:0.051" fill="#e0dfdf" d="M 374.5,301.5 C 374.833,301.5 375.167,301.5 375.5,301.5C 376.167,301.5 376.5,301.833 376.5,302.5C 377.833,306.167 377.833,309.833 376.5,313.5C 375.395,311.287 375.395,309.12 376.5,307C 374.808,305.599 374.141,303.766 374.5,301.5 Z"/></g>
<g><path style="opacity:0.651" fill="#a0a0a0" d="M 370.5,296.5 C 370.5,296.167 370.5,295.833 370.5,295.5C 372.833,295.833 374.167,297.167 374.5,299.5C 374.167,299.5 373.833,299.5 373.5,299.5C 372.833,298.167 371.833,297.167 370.5,296.5 Z"/></g>
<g><path style="opacity:0.196" fill="#b6b6b6" d="M 353.5,295.5 C 353.5,295.833 353.5,296.167 353.5,296.5C 352.833,296.833 352.167,297.167 351.5,297.5C 351.5,296.167 352.167,295.5 353.5,295.5 Z"/></g>
<g><path style="opacity:0.451" fill="#989696" d="M 359.5,293.5 C 361.288,292.378 363.288,292.211 365.5,293C 367.653,293.099 369.319,293.933 370.5,295.5C 369.833,295.5 369.167,295.5 368.5,295.5C 365.781,294.087 362.781,293.42 359.5,293.5 Z"/></g>
<g><path style="opacity:0.006" fill="#fefffe" d="M 457.5,309.5 C 457.897,308.475 458.563,308.308 459.5,309C 458.906,309.464 458.239,309.631 457.5,309.5 Z"/></g>
<g><path style="opacity:1" fill="#4d4d4d" d="M 340.5,300.5 C 340.833,300.5 341.167,300.5 341.5,300.5C 341.334,304.846 341.501,309.179 342,313.5C 342.219,312.062 342.719,310.729 343.5,309.5C 344.192,310.025 344.692,310.692 345,311.5C 345.191,309.292 345.691,307.292 346.5,305.5C 346.5,307.833 346.5,310.167 346.5,312.5C 343.674,314.203 343.341,316.036 345.5,318C 344.587,319.414 344.587,320.914 345.5,322.5C 344.833,322.167 344.167,321.833 343.5,321.5C 343.5,321.167 343.5,320.833 343.5,320.5C 343.672,319.508 343.338,318.842 342.5,318.5C 342.672,317.508 342.338,316.842 341.5,316.5C 341.672,315.508 341.338,314.842 340.5,314.5C 340.672,313.508 340.338,312.842 339.5,312.5C 339.5,309.833 339.5,307.167 339.5,304.5C 340.434,303.432 340.768,302.099 340.5,300.5 Z"/></g>
<g><path style="opacity:0.686" fill="#a3a3a3" d="M 455.5,308.5 C 456.167,308.833 456.833,309.167 457.5,309.5C 458.6,310.605 459.267,311.938 459.5,313.5C 457.413,312.415 456.08,310.749 455.5,308.5 Z"/></g>
<g><path style="opacity:0.082" fill="#d0cdce" d="M 138.5,301.5 C 137.588,305.131 137.421,308.797 138,312.5C 138.5,313.667 139.333,314.5 140.5,315C 139.944,315.383 139.611,315.883 139.5,316.5C 137.864,315.251 136.697,313.584 136,311.5C 134.863,307.537 135.697,304.204 138.5,301.5 Z"/></g>
<g><path style="opacity:0.008" fill="#f6f5f5" d="M 164.5,305.5 C 164.5,307.5 164.5,309.5 164.5,311.5C 163.577,312.303 162.577,312.47 161.5,312C 162.926,309.955 163.926,307.788 164.5,305.5 Z"/></g>
<g><path style="opacity:0.639" fill="#9e9d9e" d="M 285.5,309.5 C 287.262,310.262 288.262,311.596 288.5,313.5C 286.738,312.738 285.738,311.404 285.5,309.5 Z"/></g>
<g><path style="opacity:0.01" fill="#e7e7e7" d="M 164.5,312.5 C 165.404,313.209 165.737,314.209 165.5,315.5C 166.404,316.209 166.737,317.209 166.5,318.5C 165.167,318.833 165.167,319.167 166.5,319.5C 166.328,320.492 166.662,321.158 167.5,321.5C 167.611,323.648 166.944,323.981 165.5,322.5C 164.478,322.855 163.811,323.522 163.5,324.5C 162.833,324.5 162.167,324.5 161.5,324.5C 161.953,323.542 162.619,322.708 163.5,322C 162.29,320.961 161.29,319.794 160.5,318.5C 161.167,318.5 161.833,318.5 162.5,318.5C 161.711,316.196 162.377,314.196 164.5,312.5 Z M 165.5,315.5 C 165.489,318.001 164.822,318.168 163.5,316C 164.094,315.536 164.761,315.369 165.5,315.5 Z M 162.5,318.5 C 164.028,318.517 164.528,319.184 164,320.5C 163.283,319.956 162.783,319.289 162.5,318.5 Z"/></g>
<g><path style="opacity:1" fill="#262324" d="M 181.5,287.5 C 188.622,286.75 195.288,288.083 201.5,291.5C 202.167,292.833 203.167,293.833 204.5,294.5C 204.833,294.5 205.167,294.5 205.5,294.5C 205.833,295.167 206.167,295.833 206.5,296.5C 206.328,297.492 206.662,298.158 207.5,298.5C 207.833,298.5 208.167,298.5 208.5,298.5C 208.5,299.167 208.5,299.833 208.5,300.5C 208.328,301.492 208.662,302.158 209.5,302.5C 209.5,303.5 209.5,304.5 209.5,305.5C 209.5,306.833 209.5,308.167 209.5,309.5C 209.5,309.833 209.5,310.167 209.5,310.5C 208.699,312.042 208.366,313.708 208.5,315.5C 206.663,315.995 204.663,317.162 202.5,319C 203.823,319.816 204.489,320.983 204.5,322.5C 204.5,322.833 204.5,323.167 204.5,323.5C 203.833,323.833 203.167,324.167 202.5,324.5C 200.973,324.427 199.973,325.094 199.5,326.5C 195.363,327.654 191.196,328.654 187,329.5C 182.7,329.01 178.534,328.01 174.5,326.5C 173.738,324.738 172.404,323.738 170.5,323.5C 169.5,322.833 168.5,322.167 167.5,321.5C 167.672,320.508 167.338,319.842 166.5,319.5C 166.5,319.167 166.5,318.833 166.5,318.5C 166.737,317.209 166.404,316.209 165.5,315.5C 165.737,314.209 165.404,313.209 164.5,312.5C 164.5,312.167 164.5,311.833 164.5,311.5C 164.5,309.5 164.5,307.5 164.5,305.5C 164.5,304.5 164.5,303.5 164.5,302.5C 165.338,302.158 165.672,301.492 165.5,300.5C 166.338,300.158 166.672,299.492 166.5,298.5C 167.338,298.158 167.672,297.492 167.5,296.5C 167.833,295.833 168.167,295.167 168.5,294.5C 169.167,294.5 169.5,294.167 169.5,293.5C 169.833,293.5 170.167,293.5 170.5,293.5C 172.754,292.876 174.421,291.543 175.5,289.5C 177.898,289.741 179.898,289.074 181.5,287.5 Z M 190.5,299.5 C 191.528,302.098 192.528,302.098 193.5,299.5C 193.833,300.167 194.167,300.833 194.5,301.5C 193.167,301.833 193.167,302.167 194.5,302.5C 194.328,303.492 194.662,304.158 195.5,304.5C 195.5,305.833 196.167,306.5 197.5,306.5C 197.5,306.833 197.5,307.167 197.5,307.5C 194.833,308.167 194.833,308.833 197.5,309.5C 197.5,309.833 197.5,310.167 197.5,310.5C 196.167,310.5 195.5,311.167 195.5,312.5C 194.662,312.842 194.328,313.508 194.5,314.5C 193.508,314.328 192.842,314.662 192.5,315.5C 191.833,315.5 191.5,315.833 191.5,316.5C 190.167,316.833 190.167,317.167 191.5,317.5C 191.5,317.833 191.5,318.167 191.5,318.5C 187.766,318.677 184.099,318.344 180.5,317.5C 180.5,316.833 180.167,316.5 179.5,316.5C 177.847,313.769 177.18,310.936 177.5,308C 178.03,305.557 179.03,303.39 180.5,301.5C 181.833,301.167 181.833,300.833 180.5,300.5C 180.833,299.833 181.167,299.167 181.5,298.5C 183.342,298.277 185.175,297.943 187,297.5C 188.434,297.862 189.601,298.528 190.5,299.5 Z M 192.5,315.5 C 193.167,315.5 193.833,315.5 194.5,315.5C 194.027,316.906 193.027,317.573 191.5,317.5C 191.5,317.167 191.5,316.833 191.5,316.5C 192.167,316.5 192.5,316.167 192.5,315.5 Z"/></g>
<g><path style="opacity:0.396" fill="#cdcccc" d="M 197.5,310.5 C 197.737,311.791 197.404,312.791 196.5,313.5C 196.5,312.833 196.167,312.5 195.5,312.5C 195.5,311.167 196.167,310.5 197.5,310.5 Z"/></g>
<g><path style="opacity:0.006" fill="#e4e3e3" d="M 195.5,312.5 C 196.167,312.5 196.5,312.833 196.5,313.5C 196.672,314.492 196.338,315.158 195.5,315.5C 195.5,314.833 195.167,314.5 194.5,314.5C 194.328,313.508 194.662,312.842 195.5,312.5 Z"/></g>
<g><path style="opacity:0.039" fill="#e8e7e8" d="M 179.5,300.5 C 179.5,301.167 179.833,301.5 180.5,301.5C 179.03,303.39 178.03,305.557 177.5,308C 177.18,310.936 177.847,313.769 179.5,316.5C 177.073,314.492 176.073,311.826 176.5,308.5C 176.073,305.174 177.073,302.508 179.5,300.5 Z"/></g>
<g><path style="opacity:0.011" fill="#fefffe" d="M 197.5,307.5 C 197.5,308.167 197.5,308.833 197.5,309.5C 194.833,308.833 194.833,308.167 197.5,307.5 Z"/></g>
<g><path style="opacity:0.106" fill="#e2e1e1" d="M 196.5,303.5 C 197.404,304.209 197.737,305.209 197.5,306.5C 196.167,306.5 195.5,305.833 195.5,304.5C 196.167,304.5 196.5,304.167 196.5,303.5 Z"/></g>
<g><path style="opacity:0.012" fill="#efefef" d="M 195.5,301.5 C 196.338,301.842 196.672,302.508 196.5,303.5C 195.833,303.5 195.5,303.833 195.5,304.5C 194.662,304.158 194.328,303.492 194.5,302.5C 195.167,302.5 195.5,302.167 195.5,301.5 Z"/></g>
<g><path style="opacity:0.005" fill="#f3f3f3" d="M 191.5,298.5 C 192.492,298.328 193.158,298.662 193.5,299.5C 192.528,302.098 191.528,302.098 190.5,299.5C 191.167,299.5 191.5,299.167 191.5,298.5 Z"/></g>
<g><path style="opacity:0.448" fill="#9b999a" d="M 191.5,298.5 C 190.833,298.5 190.5,298.833 190.5,299.5C 189.601,298.528 188.434,297.862 187,297.5C 185.175,297.943 183.342,298.277 181.5,298.5C 181.611,297.883 181.944,297.383 182.5,297C 185.167,296.333 187.833,296.333 190.5,297C 191.056,297.383 191.389,297.883 191.5,298.5 Z"/></g>
<g><path style="opacity:1" fill="#232122" d="M 303.5,288.5 C 312.957,288.02 322.29,288.686 331.5,290.5C 331.833,291.5 332.5,292.167 333.5,292.5C 335.505,298.149 334.505,303.149 330.5,307.5C 330.957,308.298 331.624,308.631 332.5,308.5C 337.999,315.047 337.665,321.38 331.5,327.5C 322.167,327.5 312.833,327.5 303.5,327.5C 303.5,314.5 303.5,301.5 303.5,288.5 Z M 325.5,311.5 C 325.833,311.5 326.167,311.5 326.5,311.5C 325.571,313.322 326.238,314.655 328.5,315.5C 327.904,317.398 327.904,319.065 328.5,320.5C 328.167,321.167 327.833,321.833 327.5,322.5C 321.783,321.807 316.116,322.141 310.5,323.5C 309.517,319.702 309.183,315.702 309.5,311.5C 314.833,311.5 320.167,311.5 325.5,311.5 Z M 326.5,298.5 C 327.302,297.115 327.969,297.282 328.5,299C 328.43,299.765 328.097,300.265 327.5,300.5C 327.672,299.508 327.338,298.842 326.5,298.5 Z M 309.5,293.5 C 314.895,293.267 320.228,293.6 325.5,294.5C 325.5,294.833 325.5,295.167 325.5,295.5C 322.833,295.833 322.833,296.167 325.5,296.5C 325.328,297.492 325.662,298.158 326.5,298.5C 326.328,299.492 326.662,300.158 327.5,300.5C 327.672,301.492 327.338,302.158 326.5,302.5C 326.167,301.167 325.833,301.167 325.5,302.5C 321.107,302.457 320.774,302.957 324.5,304C 319.511,304.499 314.511,304.666 309.5,304.5C 309.5,300.833 309.5,297.167 309.5,293.5 Z"/></g>
<g><path style="opacity:0.01" fill="#f2f2f2" d="M 326.5,311.5 C 327.492,311.328 328.158,311.662 328.5,312.5C 327.167,312.833 327.167,313.167 328.5,313.5C 328.5,314.167 328.5,314.833 328.5,315.5C 326.238,314.655 325.571,313.322 326.5,311.5 Z"/></g>
<g><path style="opacity:0.171" fill="#b2b1b2" d="M 325.5,311.5 C 320.167,311.5 314.833,311.5 309.5,311.5C 309.183,315.702 309.517,319.702 310.5,323.5C 315.5,323.5 320.5,323.5 325.5,323.5C 320.015,324.652 314.349,324.818 308.5,324C 307.533,319.599 307.2,315.099 307.5,310.5C 313.69,310.177 319.69,310.51 325.5,311.5 Z"/></g>
<g><path style="opacity:0.108" fill="#cfcdce" d="M 308.5,293.5 C 308.833,293.5 309.167,293.5 309.5,293.5C 309.5,297.167 309.5,300.833 309.5,304.5C 314.511,304.666 319.511,304.499 324.5,304C 320.774,302.957 321.107,302.457 325.5,302.5C 325.5,303.167 325.833,303.5 326.5,303.5C 326.5,303.833 326.5,304.167 326.5,304.5C 320.256,305.458 313.923,305.791 307.5,305.5C 307.183,301.298 307.517,297.298 308.5,293.5 Z"/></g>
<g><path style="opacity:0.439" fill="#a7a7a7" d="M 327.5,295.5 C 328.947,296.134 329.613,297.301 329.5,299C 329.387,301.399 328.387,303.232 326.5,304.5C 326.5,304.167 326.5,303.833 326.5,303.5C 326.5,303.167 326.5,302.833 326.5,302.5C 327.338,302.158 327.672,301.492 327.5,300.5C 328.097,300.265 328.43,299.765 328.5,299C 327.969,297.282 327.302,297.115 326.5,298.5C 325.662,298.158 325.328,297.492 325.5,296.5C 326.492,296.672 327.158,296.338 327.5,295.5 Z"/></g>
<g><path style="opacity:0.457" fill="#919091" d="M 308.5,293.5 C 313.65,292.349 318.984,292.183 324.5,293C 325.056,293.383 325.389,293.883 325.5,294.5C 320.228,293.6 314.895,293.267 309.5,293.5C 309.167,293.5 308.833,293.5 308.5,293.5 Z"/></g>
<g><path style="opacity:0.012" fill="#e5e4e4" d="M 351.5,297.5 C 350.767,299.598 349.767,301.932 348.5,304.5C 348.091,307.322 348.091,310.156 348.5,313C 349.412,315.251 350.412,317.417 351.5,319.5C 349.11,317.733 347.443,315.4 346.5,312.5C 346.5,310.167 346.5,307.833 346.5,305.5C 346.679,301.791 348.346,299.124 351.5,297.5 Z"/></g>
<g><path style="opacity:0.008" fill="#e1e0e1" d="M 393.5,313.5 C 394.167,313.5 394.833,313.5 395.5,313.5C 395.167,314.167 394.833,314.833 394.5,315.5C 393.662,315.158 393.328,314.492 393.5,313.5 Z"/></g>
<g><path style="opacity:0.007" fill="#f6f6f6" d="M 429.5,314.5 C 430.133,314.88 430.8,315.213 431.5,315.5C 431.145,316.522 430.478,317.189 429.5,317.5C 429.5,316.833 429.167,316.5 428.5,316.5C 428.328,315.508 428.662,314.842 429.5,314.5 Z"/></g>
<g><path style="opacity:0.007" fill="#eae9e9" d="M 255.5,315.5 C 255.81,316.738 256.31,316.738 257,315.5C 257.699,317.074 257.365,318.407 256,319.5C 255.667,318.833 255.333,318.167 255,317.5C 254.623,318.942 253.79,319.942 252.5,320.5C 252.75,318.326 253.75,316.659 255.5,315.5 Z"/></g>
<g><path style="opacity:0.008" fill="#cbcbcb" d="M 288.5,313.5 C 289.794,314.29 290.961,315.29 292,316.5C 292.333,316.167 292.667,315.833 293,315.5C 293.47,316.577 293.303,317.577 292.5,318.5C 290.413,317.415 289.08,315.749 288.5,313.5 Z"/></g>
<g><path style="opacity:0.008" fill="#fefffe" d="M 328.5,315.5 C 328.833,315.5 329.167,315.5 329.5,315.5C 329.5,316.833 329.5,318.167 329.5,319.5C 328.833,319.5 328.5,319.833 328.5,320.5C 327.904,319.065 327.904,317.398 328.5,315.5 Z"/></g>
<g><path style="opacity:0.42" fill="#a5a5a5" d="M 329.5,313.5 C 330.947,314.134 331.613,315.301 331.5,317C 331.472,318.07 331.139,318.903 330.5,319.5C 330.768,317.901 330.434,316.568 329.5,315.5C 329.5,314.833 329.5,314.167 329.5,313.5 Z"/></g>
<g><path style="opacity:0.004" fill="#dcd8db" d="M 394.5,315.5 C 396.048,315.821 396.715,316.821 396.5,318.5C 395.094,318.027 394.427,317.027 394.5,315.5 Z"/></g>
<g><path style="opacity:0.006" fill="#fefffe" d="M 433.5,315.5 C 433.631,316.239 433.464,316.906 433,317.5C 432.308,316.563 432.475,315.897 433.5,315.5 Z"/></g>
<g><path style="opacity:0.008" fill="#fefffe" d="M 463.5,316.5 C 463.56,315.957 463.893,315.624 464.5,315.5C 465.773,316.257 465.773,316.923 464.5,317.5C 464.5,316.833 464.167,316.5 463.5,316.5 Z"/></g>
<g><path style="opacity:0.008" fill="#e5e4e5" d="M 124.5,313.5 C 125.309,315.028 125.976,316.694 126.5,318.5C 123.266,317.994 122.599,316.328 124.5,313.5 Z"/></g>
<g><path style="opacity:0.584" fill="#ababab" d="M 160.5,318.5 C 159.206,317.71 158.039,316.71 157,315.5C 155.736,317.607 153.903,318.607 151.5,318.5C 153.162,317.015 154.995,315.682 157,314.5C 159.074,315.072 160.24,316.405 160.5,318.5 Z"/></g>
<g><path style="opacity:1" fill="#5b5758" d="M 208.5,315.5 C 208.5,316.5 208.5,317.5 208.5,318.5C 207.833,318.5 207.5,318.833 207.5,319.5C 206.599,320.29 205.932,321.29 205.5,322.5C 205.167,322.5 204.833,322.5 204.5,322.5C 204.489,320.983 203.823,319.816 202.5,319C 204.663,317.162 206.663,315.995 208.5,315.5 Z"/></g>
<g><path style="opacity:0.098" fill="#bdbbbc" d="M 275.5,315.5 C 274.833,315.5 274.5,315.833 274.5,316.5C 273.833,316.5 273.5,316.833 273.5,317.5C 272.833,317.5 272.5,317.833 272.5,318.5C 272.167,318.5 271.833,318.5 271.5,318.5C 271.942,315.668 273.275,314.668 275.5,315.5 Z"/></g>
<g><path style="opacity:0.01" fill="#f1f1f1" d="M 275.5,315.5 C 277.587,316.585 278.92,318.251 279.5,320.5C 278.206,319.71 277.039,318.71 276,317.5C 274.054,320.139 273.054,323.139 273,326.5C 272.503,323.854 272.336,321.187 272.5,318.5C 273.167,318.5 273.5,318.167 273.5,317.5C 274.167,317.5 274.5,317.167 274.5,316.5C 275.167,316.5 275.5,316.167 275.5,315.5 Z"/></g>
<g><path style="opacity:0.224" fill="#cdcdcd" d="M 228.5,317.5 C 228.5,317.833 228.5,318.167 228.5,318.5C 226.29,318.106 224.957,316.773 224.5,314.5C 225.117,314.389 225.617,314.056 226,313.5C 226.29,315.111 227.123,316.444 228.5,317.5 Z"/></g>
<g><path style="opacity:0.063" fill="#e5e5e5" d="M 341.5,316.5 C 342.338,316.842 342.672,317.508 342.5,318.5C 341.833,318.5 341.5,318.833 341.5,319.5C 341.167,319.5 340.833,319.5 340.5,319.5C 340.5,318.833 340.5,318.167 340.5,317.5C 341.167,317.5 341.5,317.167 341.5,316.5 Z"/></g>
<g><path style="opacity:0.843" fill="#908f90" d="M 375.5,315.5 C 375.631,318.367 374.297,320.033 371.5,320.5C 371.833,319.833 372.167,319.167 372.5,318.5C 373.289,318.217 373.956,317.717 374.5,317C 373.16,314.821 373.493,314.321 375.5,315.5 Z"/></g>
<g><path style="opacity:0.014" fill="#fefffe" d="M 383.5,317.5 C 384.525,317.897 384.692,318.563 384,319.5C 383.536,318.906 383.369,318.239 383.5,317.5 Z"/></g>
<g><path style="opacity:0.007" fill="#ececec" d="M 387.5,315.5 C 388.674,316.514 389.34,317.847 389.5,319.5C 388.778,319.918 388.278,320.584 388,321.5C 387.167,320.667 386.333,319.833 385.5,319C 386.823,318.184 387.489,317.017 387.5,315.5 Z"/></g>
<g><path style="opacity:0.013" fill="#fefffe" d="M 397.5,318.5 C 398.077,317.227 398.743,317.227 399.5,318.5C 399.376,319.107 399.043,319.44 398.5,319.5C 398.5,318.833 398.167,318.5 397.5,318.5 Z"/></g>
<g><path style="opacity:0.006" fill="#ececec" d="M 428.5,316.5 C 429.167,316.5 429.5,316.833 429.5,317.5C 429.672,318.492 429.338,319.158 428.5,319.5C 428.5,318.833 428.167,318.5 427.5,318.5C 427.328,317.508 427.662,316.842 428.5,316.5 Z"/></g>
<g><path style="opacity:0.041" fill="#cecece" d="M 139.5,316.5 C 143.258,318.254 147.258,318.921 151.5,318.5C 148.36,319.641 145.027,319.808 141.5,319C 140.244,318.583 139.577,317.75 139.5,316.5 Z"/></g>
<g><path style="opacity:0.037" fill="#d5d4d5" d="M 180.5,317.5 C 184.099,318.344 187.766,318.677 191.5,318.5C 188.36,319.641 185.027,319.808 181.5,319C 180.944,318.617 180.611,318.117 180.5,317.5 Z"/></g>
<g><path style="opacity:0.008" fill="#fefffe" d="M 208.5,318.5 C 209.833,319.167 209.833,319.167 208.5,318.5 Z"/></g>
<g><path style="opacity:0.337" fill="#a8a8a8" d="M 459.5,313.5 C 460.833,314.5 462.167,315.5 463.5,316.5C 464.167,316.5 464.5,316.833 464.5,317.5C 464.5,318.167 464.5,318.833 464.5,319.5C 462.086,318.089 460.419,316.089 459.5,313.5 Z"/></g>
<g><path style="opacity:0.024" fill="#fefffe" d="M 207.5,319.5 C 207.833,319.5 208.167,319.5 208.5,319.5C 208.167,322.167 207.833,322.167 207.5,319.5 Z"/></g>
<g><path style="opacity:0.018" fill="#efefef" d="M 342.5,318.5 C 343.338,318.842 343.672,319.508 343.5,320.5C 342.833,320.5 342.5,320.833 342.5,321.5C 341.662,321.158 341.328,320.492 341.5,319.5C 342.167,319.5 342.5,319.167 342.5,318.5 Z"/></g>
<g><path style="opacity:0.024" fill="#e8e8e8" d="M 371.5,320.5 C 371.158,321.338 370.492,321.672 369.5,321.5C 369.409,319.302 370.075,318.969 371.5,320.5 Z"/></g>
<g><path style="opacity:0.007" fill="#f2f2f2" d="M 427.5,318.5 C 428.167,318.5 428.5,318.833 428.5,319.5C 430.031,320.925 429.698,321.591 427.5,321.5C 427.5,320.833 427.167,320.5 426.5,320.5C 426.328,319.508 426.662,318.842 427.5,318.5 Z"/></g>
<g><path style="opacity:0.978" fill="#222122" d="M 436.5,288.5 C 438.167,288.5 439.833,288.5 441.5,288.5C 441.169,295.863 441.503,303.197 442.5,310.5C 443.298,310.043 443.631,309.376 443.5,308.5C 444.833,307.833 445.833,306.833 446.5,305.5C 446.5,304.833 446.833,304.5 447.5,304.5C 452.965,299.536 458.298,294.37 463.5,289C 465.712,288.211 467.712,288.378 469.5,289.5C 466.757,291.239 464.757,293.573 463.5,296.5C 461.856,296.714 460.356,296.38 459,295.5C 458.167,297 457,298.167 455.5,299C 456.38,300.356 456.714,301.856 456.5,303.5C 456.167,304.167 455.833,304.833 455.5,305.5C 455.167,305.5 454.833,305.5 454.5,305.5C 453.285,306.779 453.618,307.779 455.5,308.5C 456.08,310.749 457.413,312.415 459.5,313.5C 460.419,316.089 462.086,318.089 464.5,319.5C 465.419,322.089 467.086,324.089 469.5,325.5C 469.414,326.496 469.748,327.329 470.5,328C 468.5,328.667 466.5,328.667 464.5,328C 461.615,323.952 458.282,320.452 454.5,317.5C 453.412,313.896 451.079,312.063 447.5,312C 446.748,312.671 446.414,313.504 446.5,314.5C 445.5,314.833 444.833,315.5 444.5,316.5C 443.022,316.238 441.689,316.571 440.5,317.5C 441.426,321.094 441.759,324.76 441.5,328.5C 439.833,328.5 438.167,328.5 436.5,328.5C 436.5,315.167 436.5,301.833 436.5,288.5 Z"/></g>
<g><path style="opacity:0.01" fill="#fefffe" d="M 443.5,318.5 C 443.833,318.5 444.167,318.5 444.5,318.5C 444.167,323.833 443.833,323.833 443.5,318.5 Z"/></g>
<g><path style="opacity:0.008" fill="#fefffe" d="M 444.5,317.5 C 444.833,317.5 445.167,317.5 445.5,317.5C 445.315,318.17 444.981,318.17 444.5,317.5 Z"/></g>
<g><path style="opacity:0.014" fill="#fefffe" d="M 452.5,316.5 C 452.631,317.239 452.464,317.906 452,318.5C 451.308,317.563 451.475,316.897 452.5,316.5 Z"/></g>
<g><path style="opacity:0.013" fill="#e2e1e2" d="M 454.5,317.5 C 453.833,317.167 453.167,316.833 452.5,316.5C 451.779,314.618 450.779,314.285 449.5,315.5C 448.778,315.918 448.278,316.584 448,317.5C 447.23,316.402 446.397,316.402 445.5,317.5C 445.5,316.833 445.167,316.5 444.5,316.5C 444.833,315.5 445.5,314.833 446.5,314.5C 446.414,313.504 446.748,312.671 447.5,312C 451.079,312.063 453.412,313.896 454.5,317.5 Z"/></g>
<g><path style="opacity:0.016" fill="#fefffe" d="M 449.5,315.5 C 450.525,315.897 450.692,316.563 450,317.5C 449.536,316.906 449.369,316.239 449.5,315.5 Z"/></g>
<g><path style="opacity:0.008" fill="#fefffe" d="M 446.5,299.5 C 447.833,300.167 447.833,300.167 446.5,299.5 Z"/></g>
<g><path style="opacity:0.008" fill="#fefffe" d="M 126.5,320.5 C 125.833,321.167 125.833,321.167 126.5,320.5 Z"/></g>
<g><path style="opacity:0.01" fill="#dad9d9" d="M 292.5,318.5 C 293.794,319.29 294.961,320.29 296,321.5C 296.893,320.289 297.726,320.289 298.5,321.5C 300.546,323.281 300.88,325.281 299.5,327.5C 297.738,326.738 296.738,325.404 296.5,323.5C 294.413,322.415 293.08,320.749 292.5,318.5 Z"/></g>
<g><path style="opacity:0.035" fill="#bebebe" d="M 389.5,319.5 C 390.906,319.973 391.573,320.973 391.5,322.5C 390.094,322.027 389.427,321.027 389.5,319.5 Z"/></g>
<g><path style="opacity:0.702" fill="#a9a9a9" d="M 464.5,319.5 C 466.34,321.168 468.34,322.668 470.5,324C 469.944,324.383 469.611,324.883 469.5,325.5C 467.086,324.089 465.419,322.089 464.5,319.5 Z"/></g>
<g><path style="opacity:0.009" fill="#f3f3f3" d="M 327.5,322.5 C 327.158,323.338 326.492,323.672 325.5,323.5C 320.5,323.5 315.5,323.5 310.5,323.5C 316.116,322.141 321.783,321.807 327.5,322.5 Z"/></g>
<g><path style="opacity:0.49" fill="#aeadad" d="M 329.5,319.5 C 329.833,319.5 330.167,319.5 330.5,319.5C 330.5,321.5 329.5,322.5 327.5,322.5C 327.833,321.833 328.167,321.167 328.5,320.5C 329.167,320.5 329.5,320.167 329.5,319.5 Z"/></g>
<g><path style="opacity:0.008" fill="#fefffe" d="M 342.5,321.5 C 342.833,321.5 343.167,321.5 343.5,321.5C 343.315,322.17 342.981,322.17 342.5,321.5 Z"/></g>
<g><path style="opacity:0.231" fill="#b3b1b2" d="M 420.5,317.5 C 419.473,320.858 417.14,322.525 413.5,322.5C 413.5,322.167 413.5,321.833 413.5,321.5C 415.153,321.34 416.486,320.674 417.5,319.5C 418.167,319.5 418.5,319.167 418.5,318.5C 419.167,318.167 419.833,317.833 420.5,317.5 Z"/></g>
<g><path style="opacity:0.01" fill="#fefffe" d="M 426.5,321.5 C 426.833,321.5 427.167,321.5 427.5,321.5C 427.672,322.492 427.338,323.158 426.5,323.5C 426.5,322.833 426.5,322.167 426.5,321.5 Z"/></g>
<g><path style="opacity:0.018" fill="#d9d8d9" d="M 128.5,321.5 C 130.167,322.5 131.5,323.833 132.5,325.5C 130.745,324.928 129.078,324.094 127.5,323C 128.056,322.617 128.389,322.117 128.5,321.5 Z"/></g>
<g><path style="opacity:0.02" fill="#fefffe" d="M 205.5,322.5 C 206.833,323.167 206.833,323.167 205.5,322.5 Z"/></g>
<g><path style="opacity:0.047" fill="#d8d8d8" d="M 252.5,320.5 C 252.267,322.062 251.6,323.395 250.5,324.5C 249.609,325.11 248.609,325.443 247.5,325.5C 248.833,323.5 250.5,321.833 252.5,320.5 Z"/></g>
<g><path style="opacity:0.78" fill="#888888" d="M 345.5,322.5 C 347.749,323.08 349.415,324.413 350.5,326.5C 348.938,326.267 347.605,325.6 346.5,324.5C 346.167,323.833 345.833,323.167 345.5,322.5 Z"/></g>
<g><path style="opacity:0.022" fill="#cccccc" d="M 351.5,319.5 C 352.391,320.11 353.391,320.443 354.5,320.5C 354.918,321.222 355.584,321.722 356.5,322C 360.152,322.499 363.818,322.665 367.5,322.5C 363.689,323.645 359.689,323.812 355.5,323C 353.456,322.502 352.122,321.335 351.5,319.5 Z"/></g>
<g><path style="opacity:0.021" fill="#d6d4d5" d="M 398.5,320.5 C 399.167,320.5 399.833,320.5 400.5,320.5C 400.918,321.222 401.584,321.722 402.5,322C 406.152,322.499 409.818,322.665 413.5,322.5C 409.689,323.645 405.689,323.812 401.5,323C 400.058,322.623 399.058,321.79 398.5,320.5 Z"/></g>
<g><path style="opacity:0.007" fill="#e3e3e3" d="M 425.5,321.5 C 425.328,322.492 425.662,323.158 426.5,323.5C 425.708,325.745 424.375,326.078 422.5,324.5C 423.167,323.167 424.167,322.167 425.5,321.5 Z"/></g>
<g><path style="opacity:0.018" fill="#fefffe" d="M 204.5,323.5 C 204.833,323.5 205.167,323.5 205.5,323.5C 205.167,326.167 204.833,326.167 204.5,323.5 Z"/></g>
<g><path style="opacity:0.078" fill="#cdcccc" d="M 279.5,320.5 C 281.587,321.585 282.92,323.251 283.5,325.5C 283.167,325.5 282.833,325.5 282.5,325.5C 281.657,323.827 280.324,322.66 278.5,322C 279.056,321.617 279.389,321.117 279.5,320.5 Z"/></g>
<g><path style="opacity:0.047" fill="#dad9da" d="M 339.5,312.5 C 339.246,314.401 339.58,315.067 340.5,314.5C 341.338,314.842 341.672,315.508 341.5,316.5C 340.833,316.5 340.5,316.833 340.5,317.5C 338.067,317.786 338.067,318.452 340.5,319.5C 339.602,320.158 338.602,320.824 337.5,321.5C 338.932,323.297 338.599,324.63 336.5,325.5C 336.167,324.167 335.833,324.167 335.5,325.5C 334.395,326.6 333.062,327.267 331.5,327.5C 337.665,321.38 337.999,315.047 332.5,308.5C 333.167,308.5 333.833,308.5 334.5,308.5C 334.833,309.833 335.167,309.833 335.5,308.5C 336.931,308.119 337.764,307.119 338,305.5C 338.186,308.036 338.686,310.369 339.5,312.5 Z"/></g>
<g><path style="opacity:0.012" fill="#fefffe" d="M 378.5,323.5 C 378.833,323.5 379.167,323.5 379.5,323.5C 379.315,324.17 378.981,324.17 378.5,323.5 Z"/></g>
<g><path style="opacity:0.008" fill="#fefffe" d="M 458.5,323.5 C 457.833,324.167 457.833,324.167 458.5,323.5 Z"/></g>
<g><path style="opacity:0.004" fill="#fefffe" d="M 163.5,324.5 C 164.833,325.167 164.833,325.167 163.5,324.5 Z"/></g>
<g><path style="opacity:0.004" fill="#fefffe" d="M 170.5,324.5 C 169.833,325.167 169.833,325.167 170.5,324.5 Z"/></g>
<g><path style="opacity:0.549" fill="#a9a8a8" d="M 170.5,324.5 C 170.5,324.167 170.5,323.833 170.5,323.5C 172.404,323.738 173.738,324.738 174.5,326.5C 173.883,326.611 173.383,326.944 173,327.5C 172.623,326.058 171.79,325.058 170.5,324.5 Z"/></g>
<g><path style="opacity:0.004" fill="#fefffe" d="M 215.5,324.5 C 215.833,324.5 216.167,324.5 216.5,324.5C 216.315,325.17 215.981,325.17 215.5,324.5 Z"/></g>
<g><path style="opacity:0.345" fill="#bbbaba" d="M 216.5,324.5 C 216.5,324.167 216.5,323.833 216.5,323.5C 218.027,323.427 219.027,324.094 219.5,325.5C 218.391,325.443 217.391,325.11 216.5,324.5 Z"/></g>
<g><path style="opacity:0.004" fill="#fefffe" d="M 250.5,324.5 C 251.833,325.167 251.833,325.167 250.5,324.5 Z"/></g>
<g><path style="opacity:0.004" fill="#fefffe" d="M 346.5,324.5 C 345.833,325.167 345.833,325.167 346.5,324.5 Z"/></g>
<g><path style="opacity:0.547" fill="#727071" d="M 444.5,316.5 C 444.5,316.833 444.5,317.167 444.5,317.5C 443.833,317.5 443.5,317.833 443.5,318.5C 442.521,321.625 442.187,324.958 442.5,328.5C 442.167,328.5 441.833,328.5 441.5,328.5C 441.759,324.76 441.426,321.094 440.5,317.5C 441.689,316.571 443.022,316.238 444.5,316.5 Z"/></g>
<g><path style="opacity:0.007" fill="#fefffe" d="M 443.5,324.5 C 444.573,325.251 444.74,326.251 444,327.5C 443.517,326.552 443.351,325.552 443.5,324.5 Z"/></g>
<g><path style="opacity:0.004" fill="#fefffe" d="M 163.5,325.5 C 162.833,326.167 162.833,326.167 163.5,325.5 Z"/></g>
<g><path style="opacity:0.012" fill="#f0f0f0" d="M 202.5,324.5 C 203.292,326.756 202.292,328.09 199.5,328.5C 199.5,328.167 199.5,327.833 199.5,327.5C 200.833,327.167 200.833,326.833 199.5,326.5C 199.973,325.094 200.973,324.427 202.5,324.5 Z"/></g>
<g><path style="opacity:0.004" fill="#fefffe" d="M 282.5,325.5 C 281.833,326.167 281.833,326.167 282.5,325.5 Z"/></g>
<g><path style="opacity:0.008" fill="#fefffe" d="M 335.5,325.5 C 335.833,325.5 336.167,325.5 336.5,325.5C 336.315,326.17 335.981,326.17 335.5,325.5 Z"/></g>
<g><path style="opacity:0.047" fill="#cccbcb" d="M 376.5,324.5 C 376.5,324.833 376.5,325.167 376.5,325.5C 375.609,326.11 374.609,326.443 373.5,326.5C 373.973,325.094 374.973,324.427 376.5,324.5 Z"/></g>
<g><path style="opacity:0.008" fill="#fefffe" d="M 376.5,325.5 C 377.833,326.167 377.833,326.167 376.5,325.5 Z"/></g>
<g><path style="opacity:0.007" fill="#cecdcd" d="M 391.5,322.5 C 393.749,323.08 395.415,324.413 396.5,326.5C 395.833,326.5 395.5,326.833 395.5,327.5C 393.621,327.607 393.288,327.107 394.5,326C 393.29,324.961 392.29,323.794 391.5,322.5 Z"/></g>
<g><path style="opacity:0.012" fill="#fefffe" d="M 422.5,325.5 C 423.833,326.167 423.833,326.167 422.5,325.5 Z"/></g>
<g><path style="opacity:0.012" fill="#fefffe" d="M 471.5,325.5 C 472.833,326.167 472.833,326.167 471.5,325.5 Z"/></g>
<g><path style="opacity:0.227" fill="#c7c4c5" d="M 132.5,325.5 C 134.027,325.427 135.027,326.094 135.5,327.5C 133.973,327.573 132.973,326.906 132.5,325.5 Z"/></g>
<g><path style="opacity:0.004" fill="#fefffe" d="M 160.5,326.5 C 161.833,327.167 161.833,327.167 160.5,326.5 Z"/></g>
<g><path style="opacity:0.004" fill="#fefffe" d="M 219.5,326.5 C 218.833,327.167 218.833,327.167 219.5,326.5 Z"/></g>
<g><path style="opacity:0.302" fill="#b0adaf" d="M 219.5,326.5 C 219.5,326.167 219.5,325.833 219.5,325.5C 221.027,325.427 222.027,326.094 222.5,327.5C 221.391,327.443 220.391,327.11 219.5,326.5 Z"/></g>
<g><path style="opacity:0.004" fill="#fefffe" d="M 247.5,326.5 C 248.833,327.167 248.833,327.167 247.5,326.5 Z"/></g>
<g><path style="opacity:0.012" fill="#dfdfdf" d="M 421.5,325.5 C 421.09,328.431 419.756,329.097 417.5,327.5C 418.514,326.326 419.847,325.66 421.5,325.5 Z"/></g>
<g><path style="opacity:0.043" fill="#d3d2d3" d="M 247.5,325.5 C 247.5,325.833 247.5,326.167 247.5,326.5C 246.322,327.662 245.155,328.662 244,329.5C 238.906,330.452 233.739,330.452 228.5,329.5C 231.713,329.81 234.713,329.477 237.5,328.5C 240.963,327.901 244.296,326.901 247.5,325.5 Z"/></g>
<g><path style="opacity:0.012" fill="#fefffe" d="M 395.5,327.5 C 395.833,327.5 396.167,327.5 396.5,327.5C 396.315,328.17 395.981,328.17 395.5,327.5 Z"/></g>
<g><path style="opacity:0.345" fill="#b5b5b5" d="M 135.5,327.5 C 137.898,327.259 139.898,327.926 141.5,329.5C 139.102,329.741 137.102,329.074 135.5,327.5 Z"/></g>
<g><path style="opacity:0.043" fill="#cbcbcb" d="M 160.5,325.5 C 160.5,325.833 160.5,326.167 160.5,326.5C 159.778,326.918 159.278,327.584 159,328.5C 158.667,328.167 158.333,327.833 158,327.5C 156.103,329.016 153.936,329.683 151.5,329.5C 154.256,327.796 157.256,326.463 160.5,325.5 Z"/></g>
<g><path style="opacity:0.024" fill="#fefffe" d="M 197.5,328.5 C 198.167,328.5 198.833,328.5 199.5,328.5C 198.833,329.833 198.167,329.833 197.5,328.5 Z"/></g>
<g><path style="opacity:0.341" fill="#989596" d="M 222.5,327.5 C 227.463,328.254 232.463,328.587 237.5,328.5C 234.713,329.477 231.713,329.81 228.5,329.5C 226.102,329.741 224.102,329.074 222.5,327.5 Z"/></g>
<g><path style="opacity:0.235" fill="#cacaca" d="M 301.5,288.5 C 301.833,288.5 302.167,288.5 302.5,288.5C 302.5,301.833 302.5,315.167 302.5,328.5C 310.833,328.5 319.167,328.5 327.5,328.5C 318.217,328.935 308.884,329.935 299.5,331.5C 296.937,331.263 296.937,330.763 299.5,330C 294.833,329.667 290.167,329.333 285.5,329C 284.177,328.184 283.511,327.017 283.5,325.5C 284.627,326.122 285.627,326.955 286.5,328C 291.02,328.814 295.354,328.647 299.5,327.5C 300.117,327.611 300.617,327.944 301,328.5C 301.5,315.171 301.667,301.837 301.5,288.5 Z"/></g>
<g><path style="opacity:0.467" fill="#b4b2b3" d="M 350.5,326.5 C 357.388,328.656 364.388,328.99 371.5,327.5C 370.531,328.309 369.698,329.309 369,330.5C 366.741,329.464 364.408,329.464 362,330.5C 357.683,330.218 353.85,328.885 350.5,326.5 Z"/></g>
<g><path style="opacity:0.012" fill="#fefffe" d="M 398.5,328.5 C 397.833,329.167 397.833,329.167 398.5,328.5 Z"/></g>
<g><path style="opacity:0.473" fill="#b9b7b8" d="M 398.5,328.5 C 398.5,328.167 398.5,327.833 398.5,327.5C 404.826,328.779 411.159,328.779 417.5,327.5C 417.5,327.833 417.5,328.167 417.5,328.5C 411.182,331.008 404.849,331.008 398.5,328.5 Z"/></g>
<g><path style="opacity:0.016" fill="#fefffe" d="M 417.5,328.5 C 418.833,329.167 418.833,329.167 417.5,328.5 Z"/></g>
<g><path style="opacity:0.247" fill="#c7c7c7" d="M 454.5,317.5 C 458.282,320.452 461.615,323.952 464.5,328C 466.5,328.667 468.5,328.667 470.5,328C 469.748,327.329 469.414,326.496 469.5,325.5C 470.167,325.833 470.833,326.167 471.5,326.5C 472.412,327.738 472.579,329.072 472,330.5C 468.606,329.544 465.106,329.211 461.5,329.5C 461.539,326.911 460.539,324.911 458.5,323.5C 456.774,321.772 455.441,319.772 454.5,317.5 Z"/></g>
<g><path style="opacity:0.158" fill="#cfcfcf" d="M 174.5,326.5 C 178.534,328.01 182.7,329.01 187,329.5C 191.196,328.654 195.363,327.654 199.5,326.5C 199.5,326.833 199.5,327.167 199.5,327.5C 198.508,327.328 197.842,327.662 197.5,328.5C 195.179,328.658 193.346,329.658 192,331.5C 188.589,330.707 185.089,330.207 181.5,330C 178.719,329.478 176.385,328.311 174.5,326.5 Z"/></g>
<g><path style="opacity:0.006" fill="#fefffe" d="M 294.5,331.5 C 294.897,330.475 295.563,330.308 296.5,331C 295.906,331.464 295.239,331.631 294.5,331.5 Z"/></g>
<g><path style="opacity:0.01" fill="#fefffe" d="M 466.5,331.5 C 466.897,330.475 467.563,330.308 468.5,331C 467.906,331.464 467.239,331.631 466.5,331.5 Z"/></g>
<g><path style="opacity:0.004" fill="#fefffe" d="M 469.5,330.5 C 470.833,331.167 470.833,331.167 469.5,330.5 Z"/></g>
</svg>
